{
	"patcher" : 	{
		"fileversion" : 1,
		"appversion" : 		{
			"major" : 9,
			"minor" : 0,
			"revision" : 9,
			"architecture" : "x64",
			"modernui" : 1
		}
,
		"classnamespace" : "box",
		"rect" : [ 343.0, 95.0, 1028.0, 761.0 ],
		"openinpresentation" : 1,
		"gridsize" : [ 15.0, 15.0 ],
		"boxes" : [ 			{
				"box" : 				{
					"id" : "obj-39",
					"maxclass" : "number",
					"numinlets" : 1,
					"numoutlets" : 2,
					"outlettype" : [ "", "bang" ],
					"parameter_enable" : 0,
					"patching_rect" : [ 888.0, 510.0, 50.0, 22.0 ]
				}

			}
, 			{
				"box" : 				{
					"id" : "obj-37",
					"maxclass" : "newobj",
					"numinlets" : 1,
					"numoutlets" : 1,
					"outlettype" : [ "" ],
					"patching_rect" : [ 1049.121216000000004, 528.0, 169.0, 22.0 ],
					"text" : "if $i1 == 144 then 104 else $i1"
				}

			}
, 			{
				"box" : 				{
					"id" : "obj-34",
					"maxclass" : "message",
					"numinlets" : 2,
					"numoutlets" : 1,
					"outlettype" : [ "" ],
					"patching_rect" : [ 26.0, 221.0, 50.0, 22.0 ],
					"text" : "35"
				}

			}
, 			{
				"box" : 				{
					"id" : "obj-6",
					"maxclass" : "newobj",
					"numinlets" : 1,
					"numoutlets" : 1,
					"outlettype" : [ "" ],
					"patching_rect" : [ 1049.121216000000004, 495.0, 54.0, 22.0 ],
					"text" : "deferlow"
				}

			}
, 			{
				"box" : 				{
					"fontname" : "Arial",
					"fontsize" : 12.0,
					"id" : "obj-29",
					"maxclass" : "newobj",
					"numinlets" : 1,
					"numoutlets" : 3,
					"outlettype" : [ "", "", "" ],
					"patching_rect" : [ 335.0, 370.5, 76.0, 22.0 ],
					"saved_object_attributes" : 					{
						"parameter_enable" : 0
					}
,
					"text" : "spat5.viewer"
				}

			}
, 			{
				"box" : 				{
					"id" : "obj-16",
					"maxclass" : "button",
					"numinlets" : 1,
					"numoutlets" : 1,
					"outlettype" : [ "bang" ],
					"parameter_enable" : 0,
					"patching_rect" : [ 525.0, 380.5, 24.0, 24.0 ]
				}

			}
, 			{
				"box" : 				{
					"id" : "obj-10",
					"maxclass" : "newobj",
					"numinlets" : 2,
					"numoutlets" : 1,
					"outlettype" : [ "" ],
					"patcher" : 					{
						"fileversion" : 1,
						"appversion" : 						{
							"major" : 9,
							"minor" : 0,
							"revision" : 9,
							"architecture" : "x64",
							"modernui" : 1
						}
,
						"classnamespace" : "box",
						"rect" : [ 77.0, 435.0, 340.0, 414.0 ],
						"default_fontsize" : 11.0,
						"gridonopen" : 2,
						"gridsize" : [ 10.0, 10.0 ],
						"gridsnaponopen" : 2,
						"toolbarvisible" : 0,
						"boxes" : [ 							{
								"box" : 								{
									"comment" : "",
									"id" : "obj-20",
									"index" : 2,
									"maxclass" : "inlet",
									"numinlets" : 0,
									"numoutlets" : 1,
									"outlettype" : [ "" ],
									"patching_rect" : [ 280.0, 20.0, 30.0, 30.0 ]
								}

							}
, 							{
								"box" : 								{
									"id" : "obj-19",
									"maxclass" : "newobj",
									"numinlets" : 1,
									"numoutlets" : 2,
									"outlettype" : [ "", "" ],
									"patching_rect" : [ 20.0, 60.0, 74.0, 21.0 ],
									"text" : "spat5.osc.iter"
								}

							}
, 							{
								"box" : 								{
									"id" : "obj-9",
									"maxclass" : "newobj",
									"numinlets" : 1,
									"numoutlets" : 1,
									"outlettype" : [ "" ],
									"patching_rect" : [ 20.0, 320.0, 27.0, 21.0 ],
									"text" : "thru"
								}

							}
, 							{
								"box" : 								{
									"id" : "obj-7",
									"maxclass" : "message",
									"numinlets" : 2,
									"numoutlets" : 1,
									"outlettype" : [ "" ],
									"patching_rect" : [ 80.0, 180.0, 35.0, 21.0 ],
									"text" : "/clear"
								}

							}
, 							{
								"box" : 								{
									"id" : "obj-5",
									"maxclass" : "newobj",
									"numinlets" : 1,
									"numoutlets" : 2,
									"outlettype" : [ "", "" ],
									"patching_rect" : [ 187.0, 270.0, 85.0, 21.0 ],
									"text" : "spat5.transform"
								}

							}
, 							{
								"box" : 								{
									"id" : "obj-4",
									"maxclass" : "newobj",
									"numinlets" : 1,
									"numoutlets" : 2,
									"outlettype" : [ "", "" ],
									"patching_rect" : [ 20.0, 100.0, 193.0, 21.0 ],
									"text" : "spat5.osc.routepass /speaker/number"
								}

							}
, 							{
								"box" : 								{
									"comment" : "",
									"id" : "obj-2",
									"index" : 1,
									"maxclass" : "outlet",
									"numinlets" : 1,
									"numoutlets" : 0,
									"patching_rect" : [ 20.0, 360.0, 30.0, 30.0 ]
								}

							}
, 							{
								"box" : 								{
									"comment" : "",
									"id" : "obj-1",
									"index" : 1,
									"maxclass" : "inlet",
									"numinlets" : 0,
									"numoutlets" : 1,
									"outlettype" : [ "" ],
									"patching_rect" : [ 20.0, 20.0, 30.0, 30.0 ]
								}

							}
 ],
						"lines" : [ 							{
								"patchline" : 								{
									"destination" : [ "obj-19", 0 ],
									"source" : [ "obj-1", 0 ]
								}

							}
, 							{
								"patchline" : 								{
									"destination" : [ "obj-4", 0 ],
									"source" : [ "obj-19", 0 ]
								}

							}
, 							{
								"patchline" : 								{
									"destination" : [ "obj-5", 0 ],
									"source" : [ "obj-20", 0 ]
								}

							}
, 							{
								"patchline" : 								{
									"destination" : [ "obj-5", 0 ],
									"source" : [ "obj-4", 1 ]
								}

							}
, 							{
								"patchline" : 								{
									"destination" : [ "obj-7", 0 ],
									"order" : 0,
									"source" : [ "obj-4", 0 ]
								}

							}
, 							{
								"patchline" : 								{
									"destination" : [ "obj-9", 0 ],
									"order" : 1,
									"source" : [ "obj-4", 0 ]
								}

							}
, 							{
								"patchline" : 								{
									"destination" : [ "obj-9", 0 ],
									"source" : [ "obj-5", 0 ]
								}

							}
, 							{
								"patchline" : 								{
									"destination" : [ "obj-5", 0 ],
									"source" : [ "obj-7", 0 ]
								}

							}
, 							{
								"patchline" : 								{
									"destination" : [ "obj-2", 0 ],
									"source" : [ "obj-9", 0 ]
								}

							}
 ],
						"bgcolor" : [ 0.9, 0.9, 0.9, 1.0 ]
					}
,
					"patching_rect" : [ 335.0, 328.0, 101.0, 22.0 ],
					"saved_object_attributes" : 					{
						"fontsize" : 11.0,
						"locked_bgcolor" : [ 0.9, 0.9, 0.9, 1.0 ]
					}
,
					"text" : "p transformations"
				}

			}
, 			{
				"box" : 				{
					"id" : "obj-7",
					"maxclass" : "button",
					"numinlets" : 1,
					"numoutlets" : 1,
					"outlettype" : [ "bang" ],
					"parameter_enable" : 0,
					"patching_rect" : [ 176.0, 375.0, 24.0, 24.0 ]
				}

			}
, 			{
				"box" : 				{
					"fontname" : "Arial",
					"fontsize" : 12.0,
					"id" : "obj-44",
					"linecount" : 4,
					"maxclass" : "newobj",
					"numinlets" : 1,
					"numoutlets" : 3,
					"outlettype" : [ "", "", "" ],
					"patching_rect" : [ 72.0, 402.0, 77.0, 62.0 ],
					"presentation_linecount" : 4,
					"saved_object_attributes" : 					{
						"parameter_enable" : 0
					}
,
					"text" : "spat5.viewer @initwith \"/source/number 49\"",
					"varname" : "view_ReEncode"
				}

			}
, 			{
				"box" : 				{
					"id" : "obj-46",
					"maxclass" : "newobj",
					"numinlets" : 2,
					"numoutlets" : 1,
					"outlettype" : [ "int" ],
					"patching_rect" : [ 1014.0, 528.0, 29.5, 22.0 ],
					"text" : "- 1"
				}

			}
, 			{
				"box" : 				{
					"id" : "obj-36",
					"maxclass" : "number",
					"numinlets" : 1,
					"numoutlets" : 2,
					"outlettype" : [ "", "bang" ],
					"parameter_enable" : 0,
					"patching_rect" : [ 956.0, 395.0, 50.0, 22.0 ]
				}

			}
, 			{
				"box" : 				{
					"id" : "obj-33",
					"maxclass" : "number",
					"numinlets" : 1,
					"numoutlets" : 2,
					"outlettype" : [ "", "bang" ],
					"parameter_enable" : 0,
					"patching_rect" : [ 1057.121216000000004, 463.0, 50.0, 22.0 ]
				}

			}
, 			{
				"box" : 				{
					"id" : "obj-30",
					"linecount" : 9,
					"maxclass" : "comment",
					"numinlets" : 1,
					"numoutlets" : 0,
					"patching_rect" : [ 1011.0, 209.0, 150.0, 127.0 ],
					"text" : "1 4\n2 12\n3 24\n4 36\n5 49\n6 64\n7 81\n8 100\n9 144"
				}

			}
, 			{
				"box" : 				{
					"id" : "obj-17",
					"linecount" : 2,
					"maxclass" : "comment",
					"numinlets" : 1,
					"numoutlets" : 0,
					"patching_rect" : [ 215.5, 417.0, 150.0, 33.0 ],
					"text" : "SAD decoding method as recommended by Farina"
				}

			}
, 			{
				"box" : 				{
					"id" : "obj-15",
					"maxclass" : "newobj",
					"numinlets" : 1,
					"numoutlets" : 2,
					"outlettype" : [ "", "" ],
					"patching_rect" : [ 956.0, 432.0, 125.0, 22.0 ],
					"saved_object_attributes" : 					{
						"filename" : "reencode_builder.js",
						"parameter_enable" : 0
					}
,
					"text" : "js reencode_builder.js"
				}

			}
, 			{
				"box" : 				{
					"id" : "obj-35",
					"linecount" : 24,
					"maxclass" : "comment",
					"numinlets" : 1,
					"numoutlets" : 0,
					"patching_rect" : [ 601.0, -16.0, 307.0, 342.0 ],
					"text" : "\"Unfortunatly it is impossible for sampling schemes based on t-design method to provide a general rule that determines the minimum number of microphones required to extract all harmonics up to a given order.\"\n\n\n\"..Simulations have provided evidence that at least 6,12,22 and 30 microphones are required in order to be able to compose a wavefield into all spherical harmonics up to order 1,2,3,and 4 respectively\"\n\nin Teutsch,Heinz Modal Array Signal Processing: Principles and Applications of Acoustic \n\n\nAngelo Farina in https://angelofarina.it/Aurora/Ambisonics-Denoising.htmprovides a table of:\n4, 12, 24, 36 and 60 for order 1,2,3,4 and 5\n\nSince there is no coherent rule, I propose albeit a bit arbitary for order 5,6,7,8 and 9\na t-design of 49,64,81,100 and 144\n\n"
				}

			}
, 			{
				"box" : 				{
					"fontsize" : 7.5,
					"id" : "obj-32",
					"linecount" : 6,
					"maxclass" : "comment",
					"numinlets" : 1,
					"numoutlets" : 0,
					"patching_rect" : [ 215.5, 44.0, 125.0, 57.0 ],
					"presentation" : 1,
					"presentation_linecount" : 5,
					"presentation_rect" : [ 65.0, 14.0, 137.0, 48.0 ],
					"text" : " For nonlinear processing of HOA: Convert an ambisonic HOA \"B-format\" to a T-format (intermediate format) using SAD virtual mics. and T-design geometry and from T to  B-format."
				}

			}
, 			{
				"box" : 				{
					"fontname" : "Helvetica Bold",
					"fontsize" : 11.0,
					"id" : "obj-27",
					"maxclass" : "comment",
					"numinlets" : 1,
					"numoutlets" : 0,
					"patching_rect" : [ 537.0, 303.5, 27.0, 17.0 ],
					"presentation" : 1,
					"presentation_rect" : [ 190.0, 50.0, 33.0, 17.0 ],
					"text" : "B"
				}

			}
, 			{
				"box" : 				{
					"id" : "obj-28",
					"leftarrow" : 0,
					"maxclass" : "live.arrows",
					"numinlets" : 1,
					"numoutlets" : 1,
					"outlettype" : [ "" ],
					"parameter_enable" : 0,
					"patching_rect" : [ 184.0, 665.5, 25.5, 21.857143402099609 ],
					"presentation" : 1,
					"presentation_rect" : [ 224.0, 48.0, 25.5, 21.857143402099609 ],
					"rightarrow" : 0,
					"uparrow" : 0
				}

			}
, 			{
				"box" : 				{
					"fontname" : "Helvetica Bold",
					"fontsize" : 11.0,
					"id" : "obj-26",
					"maxclass" : "comment",
					"numinlets" : 1,
					"numoutlets" : 0,
					"patching_rect" : [ 637.0, 655.0, 23.0, 17.0 ],
					"presentation" : 1,
					"presentation_rect" : [ 34.0, 8.0, 33.0, 17.0 ],
					"text" : "B"
				}

			}
, 			{
				"box" : 				{
					"fontname" : "Helvetica Bold",
					"fontsize" : 11.0,
					"id" : "obj-24",
					"maxclass" : "comment",
					"numinlets" : 1,
					"numoutlets" : 0,
					"patching_rect" : [ 424.0, 532.0, 20.0, 17.0 ],
					"presentation" : 1,
					"presentation_rect" : [ 190.0, 7.0, 33.0, 17.0 ],
					"text" : "T"
				}

			}
, 			{
				"box" : 				{
					"fontname" : "Helvetica Bold",
					"fontsize" : 11.0,
					"id" : "obj-14",
					"maxclass" : "comment",
					"numinlets" : 1,
					"numoutlets" : 0,
					"patching_rect" : [ 617.0, 553.0, 21.0, 17.0 ],
					"presentation" : 1,
					"presentation_rect" : [ 34.0, 49.0, 26.0, 17.0 ],
					"text" : "T"
				}

			}
, 			{
				"box" : 				{
					"id" : "obj-77",
					"leftarrow" : 0,
					"maxclass" : "live.arrows",
					"numinlets" : 1,
					"numoutlets" : 1,
					"outlettype" : [ "" ],
					"parameter_enable" : 0,
					"patching_rect" : [ 281.0, 665.5, 25.5, 21.857143402099609 ],
					"presentation" : 1,
					"presentation_rect" : [ 6.0, 47.0, 25.5, 21.857143402099609 ],
					"rightarrow" : 0,
					"uparrow" : 0
				}

			}
, 			{
				"box" : 				{
					"downarrow" : 0,
					"id" : "obj-75",
					"leftarrow" : 0,
					"maxclass" : "live.arrows",
					"numinlets" : 1,
					"numoutlets" : 1,
					"outlettype" : [ "" ],
					"parameter_enable" : 0,
					"patching_rect" : [ 321.0, 663.642856597900391, 25.5, 21.857143402099609 ],
					"presentation" : 1,
					"presentation_rect" : [ 224.0, 5.0, 25.5, 21.857143402099609 ],
					"rightarrow" : 0
				}

			}
, 			{
				"box" : 				{
					"downarrow" : 0,
					"id" : "obj-25",
					"leftarrow" : 0,
					"maxclass" : "live.arrows",
					"numinlets" : 1,
					"numoutlets" : 1,
					"outlettype" : [ "" ],
					"parameter_enable" : 0,
					"patching_rect" : [ 345.0, 663.642856597900391, 25.5, 21.857143402099609 ],
					"presentation" : 1,
					"presentation_rect" : [ 6.0, 6.0, 25.5, 21.857143402099609 ],
					"rightarrow" : 0
				}

			}
, 			{
				"box" : 				{
					"comment" : "",
					"id" : "obj-23",
					"index" : 2,
					"maxclass" : "inlet",
					"numinlets" : 0,
					"numoutlets" : 1,
					"outlettype" : [ "" ],
					"patching_rect" : [ 623.0, 481.0, 30.0, 30.0 ]
				}

			}
, 			{
				"box" : 				{
					"comment" : "",
					"id" : "obj-18",
					"index" : 1,
					"maxclass" : "outlet",
					"numinlets" : 1,
					"numoutlets" : 0,
					"patching_rect" : [ 388.0, 519.0, 30.0, 30.0 ]
				}

			}
, 			{
				"box" : 				{
					"fontname" : "Helvetica Bold",
					"fontsize" : 10.0,
					"id" : "obj-60",
					"maxclass" : "comment",
					"numinlets" : 1,
					"numoutlets" : 0,
					"patching_rect" : [ 299.0, 209.0, 93.0, 16.0 ],
					"presentation" : 1,
					"presentation_rect" : [ 96.0, 1.0, 67.0, 16.0 ],
					"text" : "Re-Encoder"
				}

			}
, 			{
				"box" : 				{
					"comment" : "",
					"id" : "obj-13",
					"index" : 2,
					"maxclass" : "outlet",
					"numinlets" : 1,
					"numoutlets" : 0,
					"patching_rect" : [ 522.0, 655.0, 30.0, 30.0 ]
				}

			}
, 			{
				"box" : 				{
					"comment" : "",
					"id" : "obj-12",
					"index" : 1,
					"maxclass" : "inlet",
					"numinlets" : 0,
					"numoutlets" : 1,
					"outlettype" : [ "multichannelsignal" ],
					"patching_rect" : [ 496.0, 290.5, 30.0, 30.0 ]
				}

			}
, 			{
				"box" : 				{
					"id" : "obj-74",
					"maxclass" : "newobj",
					"numinlets" : 0,
					"numoutlets" : 1,
					"outlettype" : [ "" ],
					"patching_rect" : [ 892.000013291835785, 328.000004887580872, 91.0, 22.0 ],
					"text" : "r orderCh-show"
				}

			}
, 			{
				"box" : 				{
					"id" : "obj-8",
					"maxclass" : "newobj",
					"numinlets" : 0,
					"numoutlets" : 1,
					"outlettype" : [ "" ],
					"patching_rect" : [ 801.0, 328.0, 69.0, 22.0 ],
					"text" : "r orderNum"
				}

			}
, 			{
				"box" : 				{
					"fontsize" : 8.0,
					"id" : "obj-9",
					"ignoreclick" : 1,
					"maxclass" : "live.numbox",
					"numinlets" : 1,
					"numoutlets" : 2,
					"outlettype" : [ "", "float" ],
					"parameter_enable" : 1,
					"parameter_mappable" : 0,
					"patching_rect" : [ 801.0, 375.0, 39.0, 13.0 ],
					"presentation" : 1,
					"presentation_rect" : [ 258.0, 39.0, 26.0, 13.0 ],
					"saved_attribute_attributes" : 					{
						"valueof" : 						{
							"parameter_longname" : "ShowCh[5]",
							"parameter_mmax" : 128.0,
							"parameter_mmin" : 1.0,
							"parameter_modmode" : 4,
							"parameter_shortname" : "showCh",
							"parameter_type" : 1,
							"parameter_unitstyle" : 0
						}

					}
,
					"varname" : "OrderNum"
				}

			}
, 			{
				"box" : 				{
					"fontsize" : 8.0,
					"id" : "obj-79",
					"ignoreclick" : 1,
					"maxclass" : "live.numbox",
					"numinlets" : 1,
					"numoutlets" : 2,
					"outlettype" : [ "", "float" ],
					"parameter_enable" : 1,
					"parameter_mappable" : 0,
					"patching_rect" : [ 892.000013291835785, 371.200005531311035, 39.0, 13.0 ],
					"presentation" : 1,
					"presentation_rect" : [ 258.0, 55.0, 26.0, 13.0 ],
					"saved_attribute_attributes" : 					{
						"valueof" : 						{
							"parameter_longname" : "ShowCh[15]",
							"parameter_mmax" : 128.0,
							"parameter_mmin" : 1.0,
							"parameter_modmode" : 4,
							"parameter_shortname" : "showCh",
							"parameter_type" : 1,
							"parameter_unitstyle" : 0
						}

					}
,
					"varname" : "ShowChbox[1]"
				}

			}
, 			{
				"box" : 				{
					"id" : "obj-11",
					"maxclass" : "newobj",
					"numinlets" : 1,
					"numoutlets" : 0,
					"patching_rect" : [ 78.0, 545.0, 78.0, 22.0 ],
					"text" : "s SPTT_load"
				}

			}
, 			{
				"box" : 				{
					"id" : "obj-3",
					"maxclass" : "newobj",
					"numinlets" : 1,
					"numoutlets" : 1,
					"outlettype" : [ "bang" ],
					"patching_rect" : [ 78.0, 513.0, 58.0, 22.0 ],
					"text" : "loadbang"
				}

			}
, 			{
				"box" : 				{
					"id" : "obj-5",
					"linecount" : 2,
					"maxclass" : "newobj",
					"numinlets" : 1,
					"numoutlets" : 3,
					"outlettype" : [ "", "", "" ],
					"patching_rect" : [ 288.0, 265.0, 148.0, 35.0 ],
					"text" : "spat5.osc.replace @initwith \"/point /speaker\""
				}

			}
, 			{
				"box" : 				{
					"id" : "obj-4",
					"maxclass" : "newobj",
					"numinlets" : 2,
					"numoutlets" : 1,
					"outlettype" : [ "" ],
					"patcher" : 					{
						"fileversion" : 1,
						"appversion" : 						{
							"major" : 9,
							"minor" : 0,
							"revision" : 9,
							"architecture" : "x64",
							"modernui" : 1
						}
,
						"classnamespace" : "box",
						"rect" : [ 77.0, 435.0, 340.0, 414.0 ],
						"default_fontsize" : 11.0,
						"gridonopen" : 2,
						"gridsize" : [ 10.0, 10.0 ],
						"gridsnaponopen" : 2,
						"toolbarvisible" : 0,
						"boxes" : [ 							{
								"box" : 								{
									"comment" : "",
									"id" : "obj-20",
									"index" : 2,
									"maxclass" : "inlet",
									"numinlets" : 0,
									"numoutlets" : 1,
									"outlettype" : [ "" ],
									"patching_rect" : [ 280.0, 20.0, 30.0, 30.0 ]
								}

							}
, 							{
								"box" : 								{
									"id" : "obj-19",
									"maxclass" : "newobj",
									"numinlets" : 1,
									"numoutlets" : 2,
									"outlettype" : [ "", "" ],
									"patching_rect" : [ 20.0, 60.0, 74.0, 21.0 ],
									"text" : "spat5.osc.iter"
								}

							}
, 							{
								"box" : 								{
									"id" : "obj-9",
									"maxclass" : "newobj",
									"numinlets" : 1,
									"numoutlets" : 1,
									"outlettype" : [ "" ],
									"patching_rect" : [ 20.0, 320.0, 27.0, 21.0 ],
									"text" : "thru"
								}

							}
, 							{
								"box" : 								{
									"id" : "obj-7",
									"maxclass" : "message",
									"numinlets" : 2,
									"numoutlets" : 1,
									"outlettype" : [ "" ],
									"patching_rect" : [ 80.0, 180.0, 35.0, 21.0 ],
									"text" : "/clear"
								}

							}
, 							{
								"box" : 								{
									"id" : "obj-5",
									"maxclass" : "newobj",
									"numinlets" : 1,
									"numoutlets" : 2,
									"outlettype" : [ "", "" ],
									"patching_rect" : [ 187.0, 270.0, 85.0, 21.0 ],
									"text" : "spat5.transform"
								}

							}
, 							{
								"box" : 								{
									"id" : "obj-4",
									"maxclass" : "newobj",
									"numinlets" : 1,
									"numoutlets" : 2,
									"outlettype" : [ "", "" ],
									"patching_rect" : [ 20.0, 100.0, 186.0, 21.0 ],
									"text" : "spat5.osc.routepass /source/number"
								}

							}
, 							{
								"box" : 								{
									"comment" : "",
									"id" : "obj-2",
									"index" : 1,
									"maxclass" : "outlet",
									"numinlets" : 1,
									"numoutlets" : 0,
									"patching_rect" : [ 20.0, 360.0, 30.0, 30.0 ]
								}

							}
, 							{
								"box" : 								{
									"comment" : "",
									"id" : "obj-1",
									"index" : 1,
									"maxclass" : "inlet",
									"numinlets" : 0,
									"numoutlets" : 1,
									"outlettype" : [ "" ],
									"patching_rect" : [ 20.0, 20.0, 30.0, 30.0 ]
								}

							}
 ],
						"lines" : [ 							{
								"patchline" : 								{
									"destination" : [ "obj-19", 0 ],
									"source" : [ "obj-1", 0 ]
								}

							}
, 							{
								"patchline" : 								{
									"destination" : [ "obj-4", 0 ],
									"source" : [ "obj-19", 0 ]
								}

							}
, 							{
								"patchline" : 								{
									"destination" : [ "obj-5", 0 ],
									"source" : [ "obj-20", 0 ]
								}

							}
, 							{
								"patchline" : 								{
									"destination" : [ "obj-5", 0 ],
									"source" : [ "obj-4", 1 ]
								}

							}
, 							{
								"patchline" : 								{
									"destination" : [ "obj-7", 0 ],
									"order" : 0,
									"source" : [ "obj-4", 0 ]
								}

							}
, 							{
								"patchline" : 								{
									"destination" : [ "obj-9", 0 ],
									"order" : 1,
									"source" : [ "obj-4", 0 ]
								}

							}
, 							{
								"patchline" : 								{
									"destination" : [ "obj-9", 0 ],
									"source" : [ "obj-5", 0 ]
								}

							}
, 							{
								"patchline" : 								{
									"destination" : [ "obj-5", 0 ],
									"source" : [ "obj-7", 0 ]
								}

							}
, 							{
								"patchline" : 								{
									"destination" : [ "obj-2", 0 ],
									"source" : [ "obj-9", 0 ]
								}

							}
 ],
						"bgcolor" : [ 0.9, 0.9, 0.9, 1.0 ]
					}
,
					"patching_rect" : [ 85.0, 339.0, 101.0, 22.0 ],
					"saved_object_attributes" : 					{
						"fontsize" : 11.0,
						"locked_bgcolor" : [ 0.9, 0.9, 0.9, 1.0 ]
					}
,
					"text" : "p transformations"
				}

			}
, 			{
				"box" : 				{
					"id" : "obj-41",
					"linecount" : 2,
					"maxclass" : "newobj",
					"numinlets" : 1,
					"numoutlets" : 3,
					"outlettype" : [ "", "", "" ],
					"patching_rect" : [ 85.0, 290.5, 141.5, 35.0 ],
					"text" : "spat5.osc.replace @initwith \"/point /source\""
				}

			}
, 			{
				"box" : 				{
					"id" : "obj-21",
					"maxclass" : "message",
					"numinlets" : 2,
					"numoutlets" : 1,
					"outlettype" : [ "" ],
					"patching_rect" : [ 85.0, 206.0, 51.0, 22.0 ],
					"text" : "/type $1"
				}

			}
, 			{
				"box" : 				{
					"fontname" : "Arial",
					"fontsize" : 11.0,
					"id" : "obj-22",
					"maxclass" : "newobj",
					"numinlets" : 1,
					"numoutlets" : 2,
					"outlettype" : [ "", "" ],
					"patching_rect" : [ 85.0, 246.0, 64.0, 21.0 ],
					"text" : "spat5.grids"
				}

			}
, 			{
				"box" : 				{
					"id" : "obj-20",
					"maxclass" : "newobj",
					"numinlets" : 0,
					"numoutlets" : 1,
					"outlettype" : [ "" ],
					"patching_rect" : [ 26.0, 142.0, 43.0, 22.0 ],
					"text" : "r t-des"
				}

			}
, 			{
				"box" : 				{
					"id" : "obj-19",
					"maxclass" : "newobj",
					"numinlets" : 1,
					"numoutlets" : 0,
					"patching_rect" : [ 956.0, 530.0, 45.0, 22.0 ],
					"text" : "s t-des"
				}

			}
, 			{
				"box" : 				{
					"id" : "obj-67",
					"maxclass" : "live.menu",
					"numinlets" : 1,
					"numoutlets" : 3,
					"outlettype" : [ "", "", "float" ],
					"parameter_enable" : 1,
					"patching_rect" : [ 26.0, 168.0, 140.0, 15.0 ],
					"saved_attribute_attributes" : 					{
						"valueof" : 						{
							"parameter_enum" : [ "1-point spherical 0-design", "2-point spherical 1-design", "3-point spherical 1-design", "4-point spherical 2-design", "5-point spherical 1-design", "6-point spherical 3-design", "7-point spherical 2-design", "8-point spherical 3-design", "9-point spherical 2-design", "10-point spherical 3-design", "11-point spherical 3-design", "12-point spherical 5-design", "13-point spherical 3-design", "14-point spherical 4-design", "15-point spherical 3-design", "16-point spherical 5-design", "17-point spherical 4-design", "18-point spherical 5-design", "19-point spherical 4-design", "20-point spherical 5-design", "21-point spherical 4-design", "22-point spherical 5-design", "23-point spherical 5-design", "24-point spherical 7-design", "25-point spherical 5-design", "26-point spherical 6-design", "27-point spherical 5-design", "28-point spherical 6-design", "29-point spherical 6-design", "30-point spherical 7-design", "31-point spherical 6-design", "32-point spherical 7-design", "33-point spherical 6-design", "34-point spherical 7-design", "35-point spherical 6-design", "36-point spherical 8-design", "37-point spherical 7-design", "38-point spherical 7-design", "39-point spherical 7-design", "40-point spherical 8-design", "41-point spherical 7-design", "42-point spherical 8-design", "43-point spherical 7-design", "44-point spherical 8-design", "45-point spherical 8-design", "46-point spherical 8-design", "47-point spherical 8-design", "48-point spherical 9-design", "49-point spherical 8-design", "50-point spherical 9-design", "51-point spherical 8-design", "52-point spherical 9-design", "53-point spherical 8-design", "54-point spherical 9-design", "55-point spherical 9-design", "56-point spherical 9-design", "57-point spherical 9-design", "58-point spherical 9-design", "59-point spherical 9-design", "60-point spherical 10-design", "61-point spherical 9-design", "62-point spherical 10-design", "63-point spherical 9-design", "64-point spherical 10-design", "65-point spherical 10-design", "66-point spherical 10-design", "67-point spherical 10-design", "68-point spherical 10-design", "69-point spherical 10-design", "70-point spherical 11-design", "71-point spherical 10-design", "72-point spherical 11-design", "73-point spherical 10-design", "74-point spherical 11-design", "75-point spherical 11-design", "76-point spherical 11-design", "77-point spherical 11-design", "78-point spherical 11-design", "79-point spherical 11-design", "80-point spherical 11-design", "81-point spherical 11-design", "82-point spherical 11-design", "83-point spherical 11-design", "84-point spherical 12-design", "85-point spherical 11-design", "86-point spherical 12-design", "87-point spherical 12-design", "88-point spherical 12-design", "89-point spherical 12-design", "90-point spherical 12-design", "91-point spherical 12-design", "92-point spherical 12-design", "93-point spherical 12-design", "94-point spherical 13-design", "95-point spherical 12-design", "96-point spherical 13-design", "97-point spherical 12-design", "98-point spherical 13-design", "99-point spherical 12-design", "100-point spherical 13-design", "108-point spherical 14-design", "120-point spherical 15-design", "132-point spherical 15-design", "144-point spherical 16-design", "156-point spherical 17-design", "180-point spherical 18-design", "204-point spherical 19-design", "216-point spherical 20-design", "240-point spherical 21-design" ],
							"parameter_longname" : "live.menu[1]",
							"parameter_mmax" : 108,
							"parameter_modmode" : 0,
							"parameter_shortname" : "live.menu[13]",
							"parameter_type" : 2
						}

					}
,
					"varname" : "live.menu[13]"
				}

			}
, 			{
				"box" : 				{
					"fontname" : "Arial",
					"fontsize" : 12.0,
					"id" : "obj-2",
					"linecount" : 2,
					"maxclass" : "newobj",
					"numinlets" : 1,
					"numoutlets" : 2,
					"outlettype" : [ "multichannelsignal", "" ],
					"patching_rect" : [ 388.0, 432.0, 393.0, 35.0 ],
					"presentation_linecount" : 2,
					"saved_object_attributes" : 					{
						"parameter_enable" : 0
					}
,
					"text" : "spat5.hoa.decoder~ @order 5 @outputs 49 @dimension 3D @mc 1 @initwith \"/method SAD\"",
					"varname" : "spat_decode_ReEncode"
				}

			}
, 			{
				"box" : 				{
					"angle" : 0.0,
					"bgcolor" : [ 0.901961, 0.901961, 0.901961, 0.0 ],
					"border" : 2,
					"bordercolor" : [ 0.0, 0.0, 0.0, 0.5 ],
					"id" : "obj-90",
					"maxclass" : "panel",
					"mode" : 0,
					"numinlets" : 1,
					"numoutlets" : 0,
					"patching_rect" : [ 911.0, 644.055587999999943, 196.121216000000004, 65.888824 ],
					"presentation" : 1,
					"presentation_rect" : [ 2.0, 1.0, 291.0, 72.0 ],
					"proportion" : 0.39,
					"rounded" : 18
				}

			}
, 			{
				"box" : 				{
					"fontname" : "Arial",
					"fontsize" : 12.0,
					"id" : "obj-1",
					"maxclass" : "newobj",
					"numinlets" : 1,
					"numoutlets" : 2,
					"outlettype" : [ "multichannelsignal", "" ],
					"patching_rect" : [ 522.0, 572.0, 527.0, 22.0 ],
					"saved_object_attributes" : 					{
						"parameter_enable" : 0
					}
,
					"text" : "spat5.hoa.encoder~ @dimension 3 @inputs 49 @order 5 @mc 1",
					"varname" : "spat_encode_ReEncode"
				}

			}
 ],
		"lines" : [ 			{
				"patchline" : 				{
					"destination" : [ "obj-13", 0 ],
					"source" : [ "obj-1", 0 ]
				}

			}
, 			{
				"patchline" : 				{
					"destination" : [ "obj-16", 0 ],
					"order" : 0,
					"source" : [ "obj-10", 0 ]
				}

			}
, 			{
				"patchline" : 				{
					"destination" : [ "obj-29", 0 ],
					"order" : 1,
					"source" : [ "obj-10", 0 ]
				}

			}
, 			{
				"patchline" : 				{
					"destination" : [ "obj-2", 0 ],
					"source" : [ "obj-12", 0 ]
				}

			}
, 			{
				"patchline" : 				{
					"destination" : [ "obj-33", 0 ],
					"source" : [ "obj-15", 1 ]
				}

			}
, 			{
				"patchline" : 				{
					"destination" : [ "obj-29", 0 ],
					"source" : [ "obj-16", 0 ]
				}

			}
, 			{
				"patchline" : 				{
					"destination" : [ "obj-18", 0 ],
					"source" : [ "obj-2", 0 ]
				}

			}
, 			{
				"patchline" : 				{
					"destination" : [ "obj-67", 0 ],
					"source" : [ "obj-20", 0 ]
				}

			}
, 			{
				"patchline" : 				{
					"destination" : [ "obj-22", 0 ],
					"source" : [ "obj-21", 0 ]
				}

			}
, 			{
				"patchline" : 				{
					"destination" : [ "obj-41", 0 ],
					"order" : 1,
					"source" : [ "obj-22", 0 ]
				}

			}
, 			{
				"patchline" : 				{
					"destination" : [ "obj-5", 0 ],
					"order" : 0,
					"source" : [ "obj-22", 0 ]
				}

			}
, 			{
				"patchline" : 				{
					"destination" : [ "obj-1", 0 ],
					"source" : [ "obj-23", 0 ]
				}

			}
, 			{
				"patchline" : 				{
					"destination" : [ "obj-2", 0 ],
					"source" : [ "obj-29", 0 ]
				}

			}
, 			{
				"patchline" : 				{
					"destination" : [ "obj-11", 0 ],
					"source" : [ "obj-3", 0 ]
				}

			}
, 			{
				"patchline" : 				{
					"destination" : [ "obj-6", 0 ],
					"source" : [ "obj-33", 0 ]
				}

			}
, 			{
				"patchline" : 				{
					"destination" : [ "obj-15", 0 ],
					"source" : [ "obj-36", 0 ]
				}

			}
, 			{
				"patchline" : 				{
					"destination" : [ "obj-46", 0 ],
					"source" : [ "obj-37", 0 ]
				}

			}
, 			{
				"patchline" : 				{
					"destination" : [ "obj-44", 0 ],
					"order" : 1,
					"source" : [ "obj-4", 0 ]
				}

			}
, 			{
				"patchline" : 				{
					"destination" : [ "obj-7", 0 ],
					"order" : 0,
					"source" : [ "obj-4", 0 ]
				}

			}
, 			{
				"patchline" : 				{
					"destination" : [ "obj-4", 0 ],
					"source" : [ "obj-41", 0 ]
				}

			}
, 			{
				"patchline" : 				{
					"destination" : [ "obj-1", 0 ],
					"source" : [ "obj-44", 0 ]
				}

			}
, 			{
				"patchline" : 				{
					"destination" : [ "obj-19", 0 ],
					"order" : 0,
					"source" : [ "obj-46", 0 ]
				}

			}
, 			{
				"patchline" : 				{
					"destination" : [ "obj-39", 0 ],
					"order" : 1,
					"source" : [ "obj-46", 0 ]
				}

			}
, 			{
				"patchline" : 				{
					"destination" : [ "obj-10", 0 ],
					"source" : [ "obj-5", 0 ]
				}

			}
, 			{
				"patchline" : 				{
					"destination" : [ "obj-37", 0 ],
					"source" : [ "obj-6", 0 ]
				}

			}
, 			{
				"patchline" : 				{
					"destination" : [ "obj-21", 0 ],
					"source" : [ "obj-67", 1 ]
				}

			}
, 			{
				"patchline" : 				{
					"destination" : [ "obj-34", 1 ],
					"source" : [ "obj-67", 0 ]
				}

			}
, 			{
				"patchline" : 				{
					"destination" : [ "obj-44", 0 ],
					"source" : [ "obj-7", 0 ]
				}

			}
, 			{
				"patchline" : 				{
					"destination" : [ "obj-79", 0 ],
					"source" : [ "obj-74", 0 ]
				}

			}
, 			{
				"patchline" : 				{
					"destination" : [ "obj-36", 0 ],
					"order" : 0,
					"source" : [ "obj-8", 0 ]
				}

			}
, 			{
				"patchline" : 				{
					"destination" : [ "obj-9", 0 ],
					"order" : 1,
					"source" : [ "obj-8", 0 ]
				}

			}
 ]
	}

}
