{
	"patcher" : 	{
		"fileversion" : 1,
		"appversion" : 		{
			"major" : 9,
			"minor" : 0,
			"revision" : 9,
			"architecture" : "x64",
			"modernui" : 1
		}
,
		"classnamespace" : "box",
		"rect" : [ 107.0, 91.0, 1158.0, 700.0 ],
		"gridsize" : [ 15.0, 15.0 ],
		"boxes" : [ 			{
				"box" : 				{
					"basictuning" : 440,
					"data" : 					{
						"clips" : [ 							{
								"absolutepath" : "preparert piano 01.wav",
								"filename" : "preparert piano 01.wav",
								"filekind" : "audiofile",
								"id" : "u142011747",
								"loop" : 1,
								"content_state" : 								{
									"loop" : 1
								}

							}
 ]
					}
,
					"followglobaltempo" : 0,
					"formantcorrection" : 0,
					"id" : "obj-8",
					"maxclass" : "playlist~",
					"mode" : "basic",
					"numinlets" : 1,
					"numoutlets" : 5,
					"originallength" : [ 0.0, "ticks" ],
					"originaltempo" : 120.0,
					"outlettype" : [ "signal", "signal", "signal", "", "dictionary" ],
					"parameter_enable" : 0,
					"patching_rect" : [ 467.0, 76.0, 150.0, 30.0 ],
					"pitchcorrection" : 0,
					"quality" : "basic",
					"saved_attribute_attributes" : 					{
						"candicane2" : 						{
							"expression" : ""
						}
,
						"candicane3" : 						{
							"expression" : ""
						}
,
						"candicane4" : 						{
							"expression" : ""
						}
,
						"candicane5" : 						{
							"expression" : ""
						}
,
						"candicane6" : 						{
							"expression" : ""
						}
,
						"candicane7" : 						{
							"expression" : ""
						}
,
						"candicane8" : 						{
							"expression" : ""
						}

					}
,
					"timestretch" : [ 0 ]
				}

			}
, 			{
				"box" : 				{
					"id" : "obj-6",
					"linecount" : 11,
					"maxclass" : "comment",
					"numinlets" : 1,
					"numoutlets" : 0,
					"patching_rect" : [ 730.0, 163.0, 293.0, 154.0 ],
					"text" : "A spectral filter reconstruction in multichannel fomat send to t-format input then encode from t-format to ambisonic where the multichannel inputs are being distributed onto a virtual sphere following the t-design\n\n\nThis is a technique you can use for a mc signals to ambisonic as long as your mc no.of channel correponds to the t-format and ambisonic order:\nThe t-format expetcs 4, 12 ,24, 36, 49, 64, 81,100 and 144 for ambisonic order 1 2 3 4 5 6 7 8 9"
				}

			}
, 			{
				"box" : 				{
					"bgmode" : 0,
					"border" : 0,
					"clickthrough" : 0,
					"enablehscroll" : 0,
					"enablevscroll" : 0,
					"id" : "obj-3",
					"lockeddragscroll" : 0,
					"lockedsize" : 0,
					"maxclass" : "bpatcher",
					"name" : "SSTT-encode.maxpat",
					"numinlets" : 1,
					"numoutlets" : 1,
					"offset" : [ 0.0, 0.0 ],
					"outlettype" : [ "multichannelsignal" ],
					"patching_rect" : [ 148.0, 76.0, 287.0, 108.0 ],
					"presentation" : 1,
					"presentation_rect" : [ 633.6796875, 217.12890625, 287.0, 108.0 ],
					"viewvisibility" : 1
				}

			}
, 			{
				"box" : 				{
					"bgmode" : 0,
					"border" : 0,
					"clickthrough" : 0,
					"enablehscroll" : 0,
					"enablevscroll" : 0,
					"id" : "obj-13",
					"lockeddragscroll" : 0,
					"lockedsize" : 0,
					"maxclass" : "bpatcher",
					"name" : "SSTT-ReEncoder.maxpat",
					"numinlets" : 2,
					"numoutlets" : 2,
					"offset" : [ 0.0, 0.0 ],
					"outlettype" : [ "multichannelsignal", "multichannelsignal" ],
					"patching_rect" : [ 398.0, 260.0, 297.0, 78.0 ],
					"viewvisibility" : 1
				}

			}
, 			{
				"box" : 				{
					"id" : "obj-4",
					"maxclass" : "newobj",
					"numinlets" : 1,
					"numoutlets" : 0,
					"patching_rect" : [ 124.0, 632.0, 54.0, 22.0 ],
					"text" : "mc.dac~"
				}

			}
, 			{
				"box" : 				{
					"bgmode" : 0,
					"border" : 0,
					"clickthrough" : 0,
					"enablehscroll" : 0,
					"enablevscroll" : 0,
					"id" : "obj-2",
					"lockeddragscroll" : 0,
					"lockedsize" : 0,
					"maxclass" : "bpatcher",
					"name" : "SSTT-Decoder-Output.maxpat",
					"numinlets" : 1,
					"numoutlets" : 1,
					"offset" : [ 0.0, 0.0 ],
					"outlettype" : [ "multichannelsignal" ],
					"patching_rect" : [ 124.0, 451.0, 989.0, 170.0 ],
					"viewvisibility" : 1
				}

			}
, 			{
				"box" : 				{
					"fontsize" : 16.0,
					"id" : "obj-24",
					"maxclass" : "live.numbox",
					"numinlets" : 1,
					"numoutlets" : 2,
					"outlettype" : [ "", "float" ],
					"parameter_enable" : 1,
					"patching_rect" : [ 569.0, 142.0, 71.0, 23.0 ],
					"saved_attribute_attributes" : 					{
						"valueof" : 						{
							"parameter_initial" : [ 300 ],
							"parameter_initial_enable" : 1,
							"parameter_longname" : "live.numbox",
							"parameter_mmax" : 5000.0,
							"parameter_modmode" : 0,
							"parameter_shortname" : "live.numbox",
							"parameter_type" : 0,
							"parameter_unitstyle" : 2
						}

					}
,
					"varname" : "live.numbox"
				}

			}
, 			{
				"box" : 				{
					"id" : "obj-21",
					"maxclass" : "newobj",
					"numinlets" : 2,
					"numoutlets" : 1,
					"outlettype" : [ "multichannelsignal" ],
					"patching_rect" : [ 463.0, 198.0, 60.0, 22.0 ],
					"text" : "mc.*~ 0.9"
				}

			}
, 			{
				"box" : 				{
					"id" : "obj-15",
					"maxclass" : "comment",
					"numinlets" : 1,
					"numoutlets" : 0,
					"patching_rect" : [ 578.0, 116.0, 150.0, 20.0 ],
					"text" : "on/off"
				}

			}
, 			{
				"box" : 				{
					"id" : "obj-9",
					"maxclass" : "toggle",
					"numinlets" : 1,
					"numoutlets" : 1,
					"outlettype" : [ "int" ],
					"parameter_enable" : 0,
					"patching_rect" : [ 516.0, 131.0, 24.0, 24.0 ]
				}

			}
, 			{
				"box" : 				{
					"id" : "obj-1",
					"maxclass" : "newobj",
					"numinlets" : 3,
					"numoutlets" : 1,
					"outlettype" : [ "multichannelsignal" ],
					"patcher" : 					{
						"fileversion" : 1,
						"appversion" : 						{
							"major" : 9,
							"minor" : 0,
							"revision" : 9,
							"architecture" : "x64",
							"modernui" : 1
						}
,
						"classnamespace" : "box",
						"rect" : [ 396.0, 104.0, 646.0, 734.0 ],
						"gridsize" : [ 15.0, 15.0 ],
						"boxes" : [ 							{
								"box" : 								{
									"id" : "obj-8",
									"maxclass" : "number",
									"numinlets" : 1,
									"numoutlets" : 2,
									"outlettype" : [ "", "bang" ],
									"parameter_enable" : 0,
									"patching_rect" : [ 208.0, 250.0, 50.0, 22.0 ]
								}

							}
, 							{
								"box" : 								{
									"id" : "obj-6",
									"maxclass" : "newobj",
									"numinlets" : 1,
									"numoutlets" : 1,
									"outlettype" : [ "" ],
									"patching_rect" : [ 107.0, 290.0, 143.0, 22.0 ],
									"saved_object_attributes" : 									{
										"filename" : "matrixSpectral-setup.js",
										"parameter_enable" : 0
									}
,
									"text" : "js matrixSpectral-setup.js"
								}

							}
, 							{
								"box" : 								{
									"id" : "obj-5",
									"maxclass" : "comment",
									"numinlets" : 1,
									"numoutlets" : 0,
									"patching_rect" : [ 207.0, 162.0, 150.0, 20.0 ],
									"text" : "from ReEncoder-tdesign"
								}

							}
, 							{
								"box" : 								{
									"id" : "obj-3",
									"maxclass" : "newobj",
									"numinlets" : 2,
									"numoutlets" : 1,
									"outlettype" : [ "int" ],
									"patching_rect" : [ 292.75, 219.0, 29.5, 22.0 ],
									"text" : "/ 2"
								}

							}
, 							{
								"box" : 								{
									"id" : "obj-2",
									"maxclass" : "newobj",
									"numinlets" : 2,
									"numoutlets" : 1,
									"outlettype" : [ "int" ],
									"patching_rect" : [ 157.0, 202.0, 29.5, 22.0 ],
									"text" : "+ 1"
								}

							}
, 							{
								"box" : 								{
									"id" : "obj-1",
									"maxclass" : "newobj",
									"numinlets" : 0,
									"numoutlets" : 1,
									"outlettype" : [ "" ],
									"patching_rect" : [ 157.0, 167.0, 43.0, 22.0 ],
									"text" : "r t-des"
								}

							}
, 							{
								"box" : 								{
									"id" : "obj-75",
									"maxclass" : "message",
									"numinlets" : 2,
									"numoutlets" : 1,
									"outlettype" : [ "" ],
									"patching_rect" : [ 189.0, 371.0, 35.0, 22.0 ],
									"text" : "clear"
								}

							}
, 							{
								"box" : 								{
									"id" : "obj-71",
									"maxclass" : "newobj",
									"numinlets" : 2,
									"numoutlets" : 1,
									"outlettype" : [ "multichannelsignal" ],
									"patching_rect" : [ 37.75, 494.0, 114.0, 22.0 ],
									"text" : "mc.normalize~ 0.53"
								}

							}
, 							{
								"box" : 								{
									"comment" : "",
									"id" : "obj-59",
									"index" : 3,
									"maxclass" : "inlet",
									"numinlets" : 0,
									"numoutlets" : 1,
									"outlettype" : [ "" ],
									"patching_rect" : [ 880.0, -4.0, 30.0, 30.0 ]
								}

							}
, 							{
								"box" : 								{
									"id" : "obj-56",
									"maxclass" : "newobj",
									"numinlets" : 0,
									"numoutlets" : 1,
									"outlettype" : [ "" ],
									"patching_rect" : [ 212.0, 416.5, 42.0, 22.0 ],
									"text" : "r clear"
								}

							}
, 							{
								"box" : 								{
									"id" : "obj-54",
									"maxclass" : "newobj",
									"numinlets" : 1,
									"numoutlets" : 0,
									"patching_rect" : [ 776.0, 208.5, 44.0, 22.0 ],
									"text" : "s clear"
								}

							}
, 							{
								"box" : 								{
									"id" : "obj-46",
									"maxclass" : "message",
									"numinlets" : 2,
									"numoutlets" : 1,
									"outlettype" : [ "" ],
									"patching_rect" : [ 152.0, 453.0, 42.0, 22.0 ],
									"text" : "0 $1 1"
								}

							}
, 							{
								"box" : 								{
									"fontname" : "Arial",
									"fontsize" : 12.0,
									"id" : "obj-41",
									"maxclass" : "newobj",
									"numinlets" : 49,
									"numoutlets" : 1,
									"outlettype" : [ "multichannelsignal" ],
									"patching_rect" : [ 38.0, 645.0, 870.0, 1312.0 ],
									"text" : "mc.pack~ 49",
									"varname" : "spectr_pack"
								}

							}
, 							{
								"box" : 								{
									"fontname" : "Arial",
									"fontsize" : 12.0,
									"id" : "obj-38",
									"maxclass" : "newobj",
									"numinlets" : 1,
									"numoutlets" : 50,
									"outlettype" : [ "signal", "signal", "signal", "signal", "signal", "signal", "signal", "signal", "signal", "signal", "signal", "signal", "signal", "signal", "signal", "signal", "signal", "signal", "signal", "signal", "signal", "signal", "signal", "signal", "signal", "signal", "signal", "signal", "signal", "signal", "signal", "signal", "signal", "signal", "signal", "signal", "signal", "signal", "signal", "signal", "signal", "signal", "signal", "signal", "signal", "signal", "signal", "signal", "signal", "" ],
									"patching_rect" : [ 37.0, 587.0, 876.0, 1196.0 ],
									"text" : "matrix~ 1 49 @ramp 1500",
									"varname" : "spectr_matrix"
								}

							}
, 							{
								"box" : 								{
									"comment" : "",
									"id" : "obj-9",
									"index" : 1,
									"maxclass" : "outlet",
									"numinlets" : 1,
									"numoutlets" : 0,
									"patching_rect" : [ 37.75, 715.0, 30.0, 30.0 ]
								}

							}
, 							{
								"box" : 								{
									"comment" : "",
									"id" : "obj-36",
									"index" : 1,
									"maxclass" : "inlet",
									"numinlets" : 0,
									"numoutlets" : 1,
									"outlettype" : [ "signal" ],
									"patching_rect" : [ 41.75, 42.0, 30.0, 30.0 ]
								}

							}
, 							{
								"box" : 								{
									"comment" : "",
									"id" : "obj-32",
									"index" : 2,
									"maxclass" : "inlet",
									"numinlets" : 0,
									"numoutlets" : 1,
									"outlettype" : [ "int" ],
									"patching_rect" : [ 837.0, -4.0, 30.0, 30.0 ]
								}

							}
, 							{
								"box" : 								{
									"id" : "obj-39",
									"maxclass" : "number",
									"numinlets" : 1,
									"numoutlets" : 2,
									"outlettype" : [ "", "bang" ],
									"parameter_enable" : 0,
									"patching_rect" : [ 460.0, 250.0, 50.0, 22.0 ]
								}

							}
, 							{
								"box" : 								{
									"id" : "obj-30",
									"maxclass" : "newobj",
									"numinlets" : 4,
									"numoutlets" : 4,
									"outlettype" : [ "bang", "bang", "bang", "" ],
									"patching_rect" : [ 351.0, 258.0, 67.0, 22.0 ],
									"text" : "sel 1 32 64"
								}

							}
, 							{
								"box" : 								{
									"id" : "obj-28",
									"maxclass" : "newobj",
									"numinlets" : 2,
									"numoutlets" : 2,
									"outlettype" : [ "int", "bang" ],
									"patching_rect" : [ 129.0, 371.0, 43.0, 22.0 ],
									"text" : "urn 64"
								}

							}
, 							{
								"box" : 								{
									"id" : "obj-27",
									"maxclass" : "newobj",
									"numinlets" : 5,
									"numoutlets" : 4,
									"outlettype" : [ "int", "", "", "int" ],
									"patching_rect" : [ 351.0, 203.0, 75.0, 22.0 ],
									"text" : "counter 1 64"
								}

							}
, 							{
								"box" : 								{
									"fontname" : "Arial",
									"fontsize" : 13.0,
									"id" : "obj-24",
									"maxclass" : "message",
									"numinlets" : 2,
									"numoutlets" : 1,
									"outlettype" : [ "" ],
									"patching_rect" : [ 212.0, 452.0, 38.0, 23.0 ],
									"text" : "clear"
								}

							}
, 							{
								"box" : 								{
									"fontname" : "Arial Bold",
									"fontsize" : 10.0,
									"id" : "obj-60",
									"maxclass" : "newobj",
									"numinlets" : 2,
									"numoutlets" : 2,
									"outlettype" : [ "bang", "" ],
									"patching_rect" : [ 837.0, 162.0, 36.0, 20.0 ],
									"text" : "sel 0"
								}

							}
, 							{
								"box" : 								{
									"fontname" : "Arial Bold",
									"fontsize" : 10.0,
									"id" : "obj-49",
									"maxclass" : "newobj",
									"numinlets" : 1,
									"numoutlets" : 1,
									"outlettype" : [ "bang" ],
									"patching_rect" : [ 768.0, 162.0, 60.0, 20.0 ],
									"text" : "loadbang"
								}

							}
, 							{
								"box" : 								{
									"fontname" : "Arial Bold",
									"fontsize" : 10.0,
									"format" : 6,
									"id" : "obj-26",
									"maxclass" : "flonum",
									"numinlets" : 1,
									"numoutlets" : 2,
									"outlettype" : [ "", "bang" ],
									"parameter_enable" : 0,
									"patching_rect" : [ 640.0, 52.0, 50.0, 20.0 ]
								}

							}
, 							{
								"box" : 								{
									"id" : "obj-22",
									"maxclass" : "toggle",
									"numinlets" : 1,
									"numoutlets" : 1,
									"outlettype" : [ "int" ],
									"parameter_enable" : 0,
									"patching_rect" : [ 592.0, 38.0, 24.0, 24.0 ]
								}

							}
, 							{
								"box" : 								{
									"fontname" : "Arial Bold",
									"fontsize" : 10.0,
									"id" : "obj-17",
									"maxclass" : "newobj",
									"numinlets" : 2,
									"numoutlets" : 1,
									"outlettype" : [ "bang" ],
									"patching_rect" : [ 588.0, 82.0, 56.0, 20.0 ],
									"text" : "metro 500"
								}

							}
, 							{
								"box" : 								{
									"fontname" : "Arial Bold",
									"fontsize" : 10.0,
									"id" : "obj-83",
									"maxclass" : "newobj",
									"numinlets" : 2,
									"numoutlets" : 1,
									"outlettype" : [ "" ],
									"patching_rect" : [ 583.0, 112.0, 81.0, 20.0 ],
									"text" : "random 4096"
								}

							}
, 							{
								"box" : 								{
									"bgcolor" : [ 0.290196, 0.309804, 0.301961, 0.0 ],
									"fontname" : "Arial Bold",
									"fontsize" : 10.0,
									"htricolor" : [ 0.815686, 0.858824, 0.34902, 0.0 ],
									"id" : "obj-18",
									"maxclass" : "number",
									"numinlets" : 1,
									"numoutlets" : 2,
									"outlettype" : [ "", "bang" ],
									"parameter_enable" : 0,
									"patching_rect" : [ 583.0, 138.0, 50.0, 20.0 ],
									"presentation" : 1,
									"presentation_rect" : [ 5.25, 148.5, 50.0, 20.0 ],
									"textcolor" : [ 0.0, 0.0, 0.0, 1.0 ],
									"tricolor" : [ 0.490196, 0.498039, 0.517647, 0.02 ]
								}

							}
, 							{
								"box" : 								{
									"fontname" : "Arial Bold",
									"fontsize" : 10.0,
									"id" : "obj-11",
									"maxclass" : "number",
									"numinlets" : 1,
									"numoutlets" : 2,
									"outlettype" : [ "", "bang" ],
									"parameter_enable" : 0,
									"patching_rect" : [ 585.0, 168.0, 50.0, 20.0 ]
								}

							}
, 							{
								"box" : 								{
									"fontname" : "Arial",
									"fontsize" : 12.0,
									"id" : "obj-68",
									"maxclass" : "newobj",
									"numinlets" : 1,
									"numoutlets" : 1,
									"outlettype" : [ "" ],
									"patching_rect" : [ 583.0, 226.0, 100.0, 22.0 ],
									"text" : "append 1000."
								}

							}
, 							{
								"box" : 								{
									"fontname" : "Arial",
									"fontsize" : 12.0,
									"id" : "obj-133",
									"maxclass" : "newobj",
									"numinlets" : 1,
									"numoutlets" : 1,
									"outlettype" : [ "" ],
									"patching_rect" : [ 583.0, 197.0, 100.0, 22.0 ],
									"text" : "prepend select"
								}

							}
, 							{
								"box" : 								{
									"bgcolor" : [ 0.095481, 0.100396, 0.100293, 1.0 ],
									"candicane2" : [ 0.846939, 0.843536, 0.833328, 1.0 ],
									"candicane3" : [ 0.709184, 0.701125, 0.701125, 1.0 ],
									"candicane4" : [ 0.586735, 0.580067, 0.580067, 1.0 ],
									"candicane5" : [ 0.510204, 0.504406, 0.504406, 1.0 ],
									"candicane6" : [ 0.443878, 0.438834, 0.438834, 1.0 ],
									"candicane7" : [ 0.362245, 0.358128, 0.358128, 1.0 ],
									"candicane8" : [ 0.306122, 0.302644, 0.302644, 1.0 ],
									"contdata" : 1,
									"id" : "obj-55",
									"maxclass" : "multislider",
									"numinlets" : 1,
									"numoutlets" : 2,
									"outlettype" : [ "", "" ],
									"parameter_enable" : 0,
									"patching_rect" : [ 583.0, 265.0, 294.0, 172.0 ],
									"peakcolor" : [ 0.209184, 0.209184, 0.209184, 1.0 ],
									"presentation" : 1,
									"presentation_rect" : [ 5.25, 44.0, 168.0, 106.0 ],
									"setminmax" : [ 0.0, 1000.0 ],
									"setstyle" : 1,
									"settype" : 0,
									"signed" : 1,
									"size" : 4096,
									"slidercolor" : [ 0.364706, 0.364706, 0.364706, 1.0 ]
								}

							}
, 							{
								"box" : 								{
									"fontname" : "Arial",
									"fontsize" : 13.0,
									"id" : "obj-19",
									"maxclass" : "message",
									"numinlets" : 2,
									"numoutlets" : 1,
									"outlettype" : [ "" ],
									"patching_rect" : [ 841.0, 208.5, 36.0, 23.0 ],
									"text" : "min"
								}

							}
, 							{
								"box" : 								{
									"fontname" : "Arial",
									"fontsize" : 13.0,
									"id" : "obj-16",
									"maxclass" : "newobj",
									"numinlets" : 1,
									"numoutlets" : 1,
									"outlettype" : [ "" ],
									"patching_rect" : [ 334.0, 354.5, 201.0, 23.0 ],
									"text" : "vexpr $i1 / 1000. @scalarmode 1"
								}

							}
, 							{
								"box" : 								{
									"fontname" : "Arial",
									"fontsize" : 13.0,
									"id" : "obj-33",
									"maxclass" : "newobj",
									"numinlets" : 1,
									"numoutlets" : 2,
									"outlettype" : [ "", "" ],
									"patching_rect" : [ 334.0, 388.5, 91.0, 23.0 ],
									"text" : "jit.fill fillerup 0"
								}

							}
, 							{
								"box" : 								{
									"id" : "obj-34",
									"maxclass" : "jit.pwindow",
									"numinlets" : 1,
									"numoutlets" : 2,
									"onscreen" : 0,
									"outlettype" : [ "jit_matrix", "" ],
									"patching_rect" : [ 334.0, 459.5, 317.0, 38.0 ],
									"sync" : 1
								}

							}
, 							{
								"box" : 								{
									"fontname" : "Arial",
									"fontsize" : 13.0,
									"id" : "obj-35",
									"maxclass" : "newobj",
									"numinlets" : 1,
									"numoutlets" : 2,
									"outlettype" : [ "jit_matrix", "" ],
									"patching_rect" : [ 334.0, 416.5, 187.0, 23.0 ],
									"text" : "jit.matrix fillerup 1 float32 4096"
								}

							}
, 							{
								"box" : 								{
									"fontname" : "Arial",
									"fontsize" : 11.595186999999999,
									"id" : "obj-23",
									"maxclass" : "newobj",
									"numinlets" : 1,
									"numoutlets" : 2,
									"outlettype" : [ "signal", "" ],
									"patching_rect" : [ 37.75, 121.0, 125.0, 21.0 ],
									"text" : "pfft~ pfftPatch~ 8192 2"
								}

							}
 ],
						"lines" : [ 							{
								"patchline" : 								{
									"destination" : [ "obj-2", 0 ],
									"source" : [ "obj-1", 0 ]
								}

							}
, 							{
								"patchline" : 								{
									"destination" : [ "obj-133", 0 ],
									"source" : [ "obj-11", 0 ]
								}

							}
, 							{
								"patchline" : 								{
									"destination" : [ "obj-68", 0 ],
									"source" : [ "obj-133", 0 ]
								}

							}
, 							{
								"patchline" : 								{
									"destination" : [ "obj-33", 0 ],
									"source" : [ "obj-16", 0 ]
								}

							}
, 							{
								"patchline" : 								{
									"destination" : [ "obj-83", 0 ],
									"source" : [ "obj-17", 0 ]
								}

							}
, 							{
								"patchline" : 								{
									"destination" : [ "obj-11", 0 ],
									"order" : 0,
									"source" : [ "obj-18", 0 ]
								}

							}
, 							{
								"patchline" : 								{
									"destination" : [ "obj-27", 0 ],
									"order" : 1,
									"source" : [ "obj-18", 0 ]
								}

							}
, 							{
								"patchline" : 								{
									"destination" : [ "obj-55", 0 ],
									"source" : [ "obj-19", 0 ]
								}

							}
, 							{
								"patchline" : 								{
									"destination" : [ "obj-27", 4 ],
									"order" : 0,
									"source" : [ "obj-2", 0 ]
								}

							}
, 							{
								"patchline" : 								{
									"destination" : [ "obj-28", 1 ],
									"order" : 4,
									"source" : [ "obj-2", 0 ]
								}

							}
, 							{
								"patchline" : 								{
									"destination" : [ "obj-3", 0 ],
									"order" : 2,
									"source" : [ "obj-2", 0 ]
								}

							}
, 							{
								"patchline" : 								{
									"destination" : [ "obj-30", 3 ],
									"order" : 1,
									"source" : [ "obj-2", 0 ]
								}

							}
, 							{
								"patchline" : 								{
									"destination" : [ "obj-8", 0 ],
									"order" : 3,
									"source" : [ "obj-2", 0 ]
								}

							}
, 							{
								"patchline" : 								{
									"destination" : [ "obj-17", 0 ],
									"source" : [ "obj-22", 0 ]
								}

							}
, 							{
								"patchline" : 								{
									"destination" : [ "obj-71", 0 ],
									"source" : [ "obj-23", 0 ]
								}

							}
, 							{
								"patchline" : 								{
									"destination" : [ "obj-28", 0 ],
									"order" : 0,
									"source" : [ "obj-24", 0 ]
								}

							}
, 							{
								"patchline" : 								{
									"destination" : [ "obj-38", 0 ],
									"order" : 1,
									"source" : [ "obj-24", 0 ]
								}

							}
, 							{
								"patchline" : 								{
									"destination" : [ "obj-17", 1 ],
									"source" : [ "obj-26", 0 ]
								}

							}
, 							{
								"patchline" : 								{
									"destination" : [ "obj-30", 0 ],
									"order" : 1,
									"source" : [ "obj-27", 0 ]
								}

							}
, 							{
								"patchline" : 								{
									"destination" : [ "obj-39", 0 ],
									"order" : 0,
									"source" : [ "obj-27", 0 ]
								}

							}
, 							{
								"patchline" : 								{
									"destination" : [ "obj-46", 0 ],
									"source" : [ "obj-28", 0 ]
								}

							}
, 							{
								"patchline" : 								{
									"destination" : [ "obj-75", 0 ],
									"source" : [ "obj-28", 1 ]
								}

							}
, 							{
								"patchline" : 								{
									"destination" : [ "obj-30", 2 ],
									"source" : [ "obj-3", 0 ]
								}

							}
, 							{
								"patchline" : 								{
									"destination" : [ "obj-28", 0 ],
									"source" : [ "obj-30", 2 ]
								}

							}
, 							{
								"patchline" : 								{
									"destination" : [ "obj-28", 0 ],
									"source" : [ "obj-30", 1 ]
								}

							}
, 							{
								"patchline" : 								{
									"destination" : [ "obj-28", 0 ],
									"source" : [ "obj-30", 0 ]
								}

							}
, 							{
								"patchline" : 								{
									"destination" : [ "obj-22", 0 ],
									"order" : 1,
									"source" : [ "obj-32", 0 ]
								}

							}
, 							{
								"patchline" : 								{
									"destination" : [ "obj-60", 0 ],
									"order" : 0,
									"source" : [ "obj-32", 0 ]
								}

							}
, 							{
								"patchline" : 								{
									"destination" : [ "obj-35", 0 ],
									"source" : [ "obj-33", 0 ]
								}

							}
, 							{
								"patchline" : 								{
									"destination" : [ "obj-34", 0 ],
									"source" : [ "obj-35", 0 ]
								}

							}
, 							{
								"patchline" : 								{
									"destination" : [ "obj-23", 0 ],
									"source" : [ "obj-36", 0 ]
								}

							}
, 							{
								"patchline" : 								{
									"destination" : [ "obj-41", 48 ],
									"source" : [ "obj-38", 48 ]
								}

							}
, 							{
								"patchline" : 								{
									"destination" : [ "obj-41", 47 ],
									"source" : [ "obj-38", 47 ]
								}

							}
, 							{
								"patchline" : 								{
									"destination" : [ "obj-41", 46 ],
									"source" : [ "obj-38", 46 ]
								}

							}
, 							{
								"patchline" : 								{
									"destination" : [ "obj-41", 45 ],
									"source" : [ "obj-38", 45 ]
								}

							}
, 							{
								"patchline" : 								{
									"destination" : [ "obj-41", 44 ],
									"source" : [ "obj-38", 44 ]
								}

							}
, 							{
								"patchline" : 								{
									"destination" : [ "obj-41", 43 ],
									"source" : [ "obj-38", 43 ]
								}

							}
, 							{
								"patchline" : 								{
									"destination" : [ "obj-41", 42 ],
									"source" : [ "obj-38", 42 ]
								}

							}
, 							{
								"patchline" : 								{
									"destination" : [ "obj-41", 41 ],
									"source" : [ "obj-38", 41 ]
								}

							}
, 							{
								"patchline" : 								{
									"destination" : [ "obj-41", 40 ],
									"source" : [ "obj-38", 40 ]
								}

							}
, 							{
								"patchline" : 								{
									"destination" : [ "obj-41", 39 ],
									"source" : [ "obj-38", 39 ]
								}

							}
, 							{
								"patchline" : 								{
									"destination" : [ "obj-41", 38 ],
									"source" : [ "obj-38", 38 ]
								}

							}
, 							{
								"patchline" : 								{
									"destination" : [ "obj-41", 37 ],
									"source" : [ "obj-38", 37 ]
								}

							}
, 							{
								"patchline" : 								{
									"destination" : [ "obj-41", 36 ],
									"source" : [ "obj-38", 36 ]
								}

							}
, 							{
								"patchline" : 								{
									"destination" : [ "obj-41", 35 ],
									"source" : [ "obj-38", 35 ]
								}

							}
, 							{
								"patchline" : 								{
									"destination" : [ "obj-41", 34 ],
									"source" : [ "obj-38", 34 ]
								}

							}
, 							{
								"patchline" : 								{
									"destination" : [ "obj-41", 33 ],
									"source" : [ "obj-38", 33 ]
								}

							}
, 							{
								"patchline" : 								{
									"destination" : [ "obj-41", 32 ],
									"source" : [ "obj-38", 32 ]
								}

							}
, 							{
								"patchline" : 								{
									"destination" : [ "obj-41", 31 ],
									"source" : [ "obj-38", 31 ]
								}

							}
, 							{
								"patchline" : 								{
									"destination" : [ "obj-41", 30 ],
									"source" : [ "obj-38", 30 ]
								}

							}
, 							{
								"patchline" : 								{
									"destination" : [ "obj-41", 29 ],
									"source" : [ "obj-38", 29 ]
								}

							}
, 							{
								"patchline" : 								{
									"destination" : [ "obj-41", 28 ],
									"source" : [ "obj-38", 28 ]
								}

							}
, 							{
								"patchline" : 								{
									"destination" : [ "obj-41", 27 ],
									"source" : [ "obj-38", 27 ]
								}

							}
, 							{
								"patchline" : 								{
									"destination" : [ "obj-41", 26 ],
									"source" : [ "obj-38", 26 ]
								}

							}
, 							{
								"patchline" : 								{
									"destination" : [ "obj-41", 25 ],
									"source" : [ "obj-38", 25 ]
								}

							}
, 							{
								"patchline" : 								{
									"destination" : [ "obj-41", 24 ],
									"source" : [ "obj-38", 24 ]
								}

							}
, 							{
								"patchline" : 								{
									"destination" : [ "obj-41", 23 ],
									"source" : [ "obj-38", 23 ]
								}

							}
, 							{
								"patchline" : 								{
									"destination" : [ "obj-41", 22 ],
									"source" : [ "obj-38", 22 ]
								}

							}
, 							{
								"patchline" : 								{
									"destination" : [ "obj-41", 21 ],
									"source" : [ "obj-38", 21 ]
								}

							}
, 							{
								"patchline" : 								{
									"destination" : [ "obj-41", 20 ],
									"source" : [ "obj-38", 20 ]
								}

							}
, 							{
								"patchline" : 								{
									"destination" : [ "obj-41", 19 ],
									"source" : [ "obj-38", 19 ]
								}

							}
, 							{
								"patchline" : 								{
									"destination" : [ "obj-41", 18 ],
									"source" : [ "obj-38", 18 ]
								}

							}
, 							{
								"patchline" : 								{
									"destination" : [ "obj-41", 17 ],
									"source" : [ "obj-38", 17 ]
								}

							}
, 							{
								"patchline" : 								{
									"destination" : [ "obj-41", 16 ],
									"source" : [ "obj-38", 16 ]
								}

							}
, 							{
								"patchline" : 								{
									"destination" : [ "obj-41", 15 ],
									"source" : [ "obj-38", 15 ]
								}

							}
, 							{
								"patchline" : 								{
									"destination" : [ "obj-41", 14 ],
									"source" : [ "obj-38", 14 ]
								}

							}
, 							{
								"patchline" : 								{
									"destination" : [ "obj-41", 13 ],
									"source" : [ "obj-38", 13 ]
								}

							}
, 							{
								"patchline" : 								{
									"destination" : [ "obj-41", 12 ],
									"source" : [ "obj-38", 12 ]
								}

							}
, 							{
								"patchline" : 								{
									"destination" : [ "obj-41", 11 ],
									"source" : [ "obj-38", 11 ]
								}

							}
, 							{
								"patchline" : 								{
									"destination" : [ "obj-41", 10 ],
									"source" : [ "obj-38", 10 ]
								}

							}
, 							{
								"patchline" : 								{
									"destination" : [ "obj-41", 9 ],
									"source" : [ "obj-38", 9 ]
								}

							}
, 							{
								"patchline" : 								{
									"destination" : [ "obj-41", 8 ],
									"source" : [ "obj-38", 8 ]
								}

							}
, 							{
								"patchline" : 								{
									"destination" : [ "obj-41", 7 ],
									"source" : [ "obj-38", 7 ]
								}

							}
, 							{
								"patchline" : 								{
									"destination" : [ "obj-41", 6 ],
									"source" : [ "obj-38", 6 ]
								}

							}
, 							{
								"patchline" : 								{
									"destination" : [ "obj-41", 5 ],
									"source" : [ "obj-38", 5 ]
								}

							}
, 							{
								"patchline" : 								{
									"destination" : [ "obj-41", 4 ],
									"source" : [ "obj-38", 4 ]
								}

							}
, 							{
								"patchline" : 								{
									"destination" : [ "obj-41", 3 ],
									"source" : [ "obj-38", 3 ]
								}

							}
, 							{
								"patchline" : 								{
									"destination" : [ "obj-41", 2 ],
									"source" : [ "obj-38", 2 ]
								}

							}
, 							{
								"patchline" : 								{
									"destination" : [ "obj-41", 1 ],
									"source" : [ "obj-38", 1 ]
								}

							}
, 							{
								"patchline" : 								{
									"destination" : [ "obj-41", 0 ],
									"source" : [ "obj-38", 0 ]
								}

							}
, 							{
								"patchline" : 								{
									"destination" : [ "obj-9", 0 ],
									"source" : [ "obj-41", 0 ]
								}

							}
, 							{
								"patchline" : 								{
									"destination" : [ "obj-38", 0 ],
									"source" : [ "obj-46", 0 ]
								}

							}
, 							{
								"patchline" : 								{
									"destination" : [ "obj-19", 0 ],
									"source" : [ "obj-49", 0 ]
								}

							}
, 							{
								"patchline" : 								{
									"destination" : [ "obj-16", 0 ],
									"midpoints" : [ 592.5, 450.0, 548.0, 450.0, 548.0, 329.0, 343.5, 329.0 ],
									"source" : [ "obj-55", 0 ]
								}

							}
, 							{
								"patchline" : 								{
									"destination" : [ "obj-24", 0 ],
									"source" : [ "obj-56", 0 ]
								}

							}
, 							{
								"patchline" : 								{
									"destination" : [ "obj-26", 0 ],
									"source" : [ "obj-59", 0 ]
								}

							}
, 							{
								"patchline" : 								{
									"destination" : [ "obj-19", 0 ],
									"order" : 0,
									"source" : [ "obj-60", 0 ]
								}

							}
, 							{
								"patchline" : 								{
									"destination" : [ "obj-54", 0 ],
									"order" : 1,
									"source" : [ "obj-60", 0 ]
								}

							}
, 							{
								"patchline" : 								{
									"destination" : [ "obj-55", 0 ],
									"source" : [ "obj-68", 0 ]
								}

							}
, 							{
								"patchline" : 								{
									"destination" : [ "obj-38", 0 ],
									"source" : [ "obj-71", 0 ]
								}

							}
, 							{
								"patchline" : 								{
									"destination" : [ "obj-28", 1 ],
									"source" : [ "obj-75", 0 ]
								}

							}
, 							{
								"patchline" : 								{
									"destination" : [ "obj-6", 0 ],
									"source" : [ "obj-8", 0 ]
								}

							}
, 							{
								"patchline" : 								{
									"destination" : [ "obj-18", 0 ],
									"source" : [ "obj-83", 0 ]
								}

							}
 ]
					}
,
					"patching_rect" : [ 463.0, 170.0, 125.0, 22.0 ],
					"text" : "p spectralReconstruct"
				}

			}
 ],
		"lines" : [ 			{
				"patchline" : 				{
					"destination" : [ "obj-21", 0 ],
					"source" : [ "obj-1", 0 ]
				}

			}
, 			{
				"patchline" : 				{
					"destination" : [ "obj-2", 0 ],
					"source" : [ "obj-13", 1 ]
				}

			}
, 			{
				"patchline" : 				{
					"destination" : [ "obj-4", 0 ],
					"source" : [ "obj-2", 0 ]
				}

			}
, 			{
				"patchline" : 				{
					"destination" : [ "obj-13", 1 ],
					"source" : [ "obj-21", 0 ]
				}

			}
, 			{
				"patchline" : 				{
					"destination" : [ "obj-1", 2 ],
					"source" : [ "obj-24", 0 ]
				}

			}
, 			{
				"patchline" : 				{
					"destination" : [ "obj-1", 0 ],
					"source" : [ "obj-8", 1 ]
				}

			}
, 			{
				"patchline" : 				{
					"destination" : [ "obj-1", 0 ],
					"source" : [ "obj-8", 0 ]
				}

			}
, 			{
				"patchline" : 				{
					"destination" : [ "obj-1", 1 ],
					"source" : [ "obj-9", 0 ]
				}

			}
 ],
		"parameters" : 		{
			"obj-13::obj-67" : [ "live.menu[39]", "live.menu[13]", 0 ],
			"obj-13::obj-79" : [ "ShowCh[15]", "showCh", 0 ],
			"obj-13::obj-9" : [ "ShowCh[5]", "showCh", 0 ],
			"obj-24" : [ "live.numbox", "live.numbox", 0 ],
			"obj-2::obj-10" : [ "Crossover", "Crossover", 0 ],
			"obj-2::obj-103::obj-21" : [ "speakersetup", "live.menu", 0 ],
			"obj-2::obj-12" : [ "live.menu[8]", "live.menu[2]", 0 ],
			"obj-2::obj-14" : [ "mc.live.gain~[2]", "loudspeakers", 0 ],
			"obj-2::obj-22::obj-102" : [ "live.toggle[436]", "live.toggle", 0 ],
			"obj-2::obj-22::obj-3" : [ "live.text[1]", "live.text[9]", 0 ],
			"obj-2::obj-22::obj-57" : [ "live.text[9]", "live.text[9]", 0 ],
			"obj-2::obj-22::obj-58" : [ "live.text[10]", "live.text[9]", 0 ],
			"obj-2::obj-22::obj-62" : [ "live.text[12]", "live.text[9]", 0 ],
			"obj-2::obj-22::obj-72" : [ "live.text[14]", "live.text[8]", 0 ],
			"obj-2::obj-25" : [ "live.tab[2]", "live.tab[2]", 0 ],
			"obj-2::obj-27" : [ "live.menu[9]", "live.menu", 0 ],
			"obj-2::obj-31" : [ "Headphones_vol", "headphones", 0 ],
			"obj-2::obj-38" : [ "live.numbox[6]", "live.numbox", 0 ],
			"obj-2::obj-4" : [ "ShowCh[1]", "showCh", 0 ],
			"obj-2::obj-45" : [ "live.menu[10]", "live.menu", 0 ],
			"obj-2::obj-58" : [ "live.text[13]", "live.text[9]", 0 ],
			"obj-2::obj-7" : [ "live.menu[5]", "live.menu[1]", 0 ],
			"obj-2::obj-79" : [ "ShowCh[2]", "showCh", 0 ],
			"obj-3::obj-20" : [ "ShowCh[13]", "showCh", 0 ],
			"obj-3::obj-3" : [ "ambiorder", "ambiorder", 0 ],
			"obj-3::obj-57" : [ "live.text[15]", "live.text[9]", 0 ],
			"obj-3::obj-79" : [ "ShowCh[14]", "showCh", 0 ],
			"inherited_shortname" : 1
		}
,
		"dependency_cache" : [ 			{
				"name" : "SSTT-Decoder-Output.maxpat",
				"bootpath" : "~/Documents/Spatial-Transformation-toolkit",
				"patcherrelativepath" : ".",
				"type" : "JSON",
				"implicit" : 1
			}
, 			{
				"name" : "SSTT-ReEncoder.maxpat",
				"bootpath" : "~/Documents/Spatial-Transformation-toolkit",
				"patcherrelativepath" : ".",
				"type" : "JSON",
				"implicit" : 1
			}
, 			{
				"name" : "SSTT-encode.maxpat",
				"bootpath" : "~/Documents/Spatial-Transformation-toolkit",
				"patcherrelativepath" : ".",
				"type" : "JSON",
				"implicit" : 1
			}
, 			{
				"name" : "matrixSpectral-setup.js",
				"bootpath" : "~/Documents/Spatial-Transformation-toolkit/javascript",
				"patcherrelativepath" : "./javascript",
				"type" : "TEXT",
				"implicit" : 1
			}
, 			{
				"name" : "pfftPatch~.maxpat",
				"bootpath" : "~/Documents/Spatial-Transformation-toolkit/abstractions",
				"patcherrelativepath" : "./abstractions",
				"type" : "JSON",
				"implicit" : 1
			}
, 			{
				"name" : "preparert piano 01.wav",
				"bootpath" : "~/Documents/Spatial-Transformation-toolkit/media",
				"patcherrelativepath" : "./media",
				"type" : "WAVE",
				"implicit" : 1
			}
, 			{
				"name" : "reencode_builder.js",
				"bootpath" : "~/Documents/Spatial-Transformation-toolkit/javascript",
				"patcherrelativepath" : "./javascript",
				"type" : "TEXT",
				"implicit" : 1
			}
, 			{
				"name" : "spat5.grids.mxo",
				"type" : "iLaX"
			}
, 			{
				"name" : "spat5.gui.control.maxpat",
				"bootpath" : "~/Documents/Max 9/Packages/spat5/patchers",
				"patcherrelativepath" : "../Max 9/Packages/spat5/patchers",
				"type" : "JSON",
				"implicit" : 1
			}
, 			{
				"name" : "spat5.headphoneeq~.mxo",
				"type" : "iLaX"
			}
, 			{
				"name" : "spat5.hoa.binaural~.mxo",
				"type" : "iLaX"
			}
, 			{
				"name" : "spat5.hoa.decoder~.mxo",
				"type" : "iLaX"
			}
, 			{
				"name" : "spat5.hoa.encoder~.mxo",
				"type" : "iLaX"
			}
, 			{
				"name" : "spat5.known.speakersetups.maxpat",
				"bootpath" : "~/Documents/Max 9/Packages/spat5/patchers",
				"patcherrelativepath" : "../Max 9/Packages/spat5/patchers",
				"type" : "JSON",
				"implicit" : 1
			}
, 			{
				"name" : "spat5.osc.iter.mxo",
				"type" : "iLaX"
			}
, 			{
				"name" : "spat5.osc.replace.mxo",
				"type" : "iLaX"
			}
, 			{
				"name" : "spat5.osc.route.mxo",
				"type" : "iLaX"
			}
, 			{
				"name" : "spat5.osc.routepass.mxo",
				"type" : "iLaX"
			}
, 			{
				"name" : "spat5.speaker.config.mxo",
				"type" : "iLaX"
			}
, 			{
				"name" : "spat5.speaker.layout.mxo",
				"type" : "iLaX"
			}
, 			{
				"name" : "spat5.transform.mxo",
				"type" : "iLaX"
			}
, 			{
				"name" : "spat5.viewer.mxo",
				"type" : "iLaX"
			}
, 			{
				"name" : "spat_decode_manager.js",
				"bootpath" : "~/Documents/Spatial-Transformation-toolkit/javascript",
				"patcherrelativepath" : "./javascript",
				"type" : "TEXT",
				"implicit" : 1
			}
, 			{
				"name" : "sptt-hoa-encodeMain.js",
				"bootpath" : "~/Documents/Spatial-Transformation-toolkit/javascript",
				"patcherrelativepath" : "./javascript",
				"type" : "TEXT",
				"implicit" : 1
			}
, 			{
				"name" : "thru.maxpat",
				"bootpath" : "C74:/patchers/m4l/Pluggo for Live resources/patches",
				"type" : "JSON",
				"implicit" : 1
			}
 ],
		"autosave" : 0
	}

}
