{
	"patcher" : 	{
		"fileversion" : 1,
		"appversion" : 		{
			"major" : 9,
			"minor" : 0,
			"revision" : 9,
			"architecture" : "x64",
			"modernui" : 1
		}
,
		"classnamespace" : "box",
		"rect" : [ 34.0, 87.0, 1254.0, 700.0 ],
		"gridsize" : [ 15.0, 15.0 ],
		"boxes" : [ 			{
				"box" : 				{
					"id" : "obj-20",
					"maxclass" : "message",
					"numinlets" : 2,
					"numoutlets" : 1,
					"outlettype" : [ "" ],
					"patching_rect" : [ 1207.0, 490.0, 85.0, 22.0 ],
					"text" : "/Sub_ch_sel 4"
				}

			}
, 			{
				"box" : 				{
					"fontface" : 0,
					"id" : "obj-25",
					"maxclass" : "newobj",
					"numinlets" : 1,
					"numoutlets" : 1,
					"outlettype" : [ "bang" ],
					"patching_rect" : [ 1207.0, 446.0, 58.0, 22.0 ],
					"text" : "loadbang"
				}

			}
, 			{
				"box" : 				{
					"fontface" : 0,
					"id" : "obj-32",
					"linecount" : 2,
					"maxclass" : "newobj",
					"numinlets" : 1,
					"numoutlets" : 2,
					"outlettype" : [ "", "" ],
					"patching_rect" : [ 1207.0, 523.0, 111.0, 35.0 ],
					"text" : "spat5.osc.prepend /SSTT-example-7/"
				}

			}
, 			{
				"box" : 				{
					"fontface" : 0,
					"id" : "obj-21",
					"maxclass" : "newobj",
					"numinlets" : 1,
					"numoutlets" : 1,
					"outlettype" : [ "" ],
					"patching_rect" : [ 1207.0, 560.0, 122.0, 22.0 ],
					"text" : "param.osc @auto 1"
				}

			}
, 			{
				"box" : 				{
					"bubble" : 1,
					"bubble_bgcolor" : [ 0.627450980392157, 0.741176470588235, 0.568627450980392, 1.0 ],
					"bubbleside" : 2,
					"id" : "obj-13",
					"maxclass" : "comment",
					"numinlets" : 1,
					"numoutlets" : 0,
					"patching_rect" : [ 823.0, 467.0, 152.0, 39.0 ],
					"text" : "Select a 5.1 setup"
				}

			}
, 			{
				"box" : 				{
					"id" : "obj-11",
					"linecount" : 18,
					"maxclass" : "comment",
					"numinlets" : 1,
					"numoutlets" : 0,
					"patching_rect" : [ 644.0, 113.0, 153.0, 248.0 ],
					"text" : "// Route Sub from W (omni  component )from Ambisonic signal, we assume sub bass is omnidirectional, which is true ..but not always. However it is nice trick to have a separate Sub output .\n\nIn this example we want to set the output of the Sub bass signal to a separate output channel  no 4 and use a list object to set the channel routing of the decoded signal to mc.dac~. "
				}

			}
, 			{
				"box" : 				{
					"basictuning" : 440,
					"data" : 					{
						"clips" : [ 							{
								"absolutepath" : "bsclarinetsAirsnd3.aif",
								"filename" : "bsclarinetsAirsnd3.aif",
								"filekind" : "audiofile",
								"id" : "u921011251",
								"loop" : 1,
								"content_state" : 								{
									"loop" : 1
								}

							}
 ]
					}
,
					"followglobaltempo" : 0,
					"formantcorrection" : 0,
					"id" : "obj-8",
					"maxclass" : "playlist~",
					"mode" : "basic",
					"numinlets" : 1,
					"numoutlets" : 5,
					"originallength" : [ 0.0, "ticks" ],
					"originaltempo" : 120.0,
					"outlettype" : [ "signal", "signal", "signal", "", "dictionary" ],
					"parameter_enable" : 0,
					"patching_rect" : [ 183.0, 50.0, 150.0, 30.0 ],
					"pitchcorrection" : 0,
					"quality" : "basic",
					"saved_attribute_attributes" : 					{
						"candicane2" : 						{
							"expression" : ""
						}
,
						"candicane3" : 						{
							"expression" : ""
						}
,
						"candicane4" : 						{
							"expression" : ""
						}
,
						"candicane5" : 						{
							"expression" : ""
						}
,
						"candicane6" : 						{
							"expression" : ""
						}
,
						"candicane7" : 						{
							"expression" : ""
						}
,
						"candicane8" : 						{
							"expression" : ""
						}

					}
,
					"timestretch" : [ 0 ]
				}

			}
, 			{
				"box" : 				{
					"id" : "obj-6",
					"maxclass" : "message",
					"numinlets" : 2,
					"numoutlets" : 1,
					"outlettype" : [ "" ],
					"patching_rect" : [ 238.0, 621.0, 55.0, 22.0 ],
					"text" : "1 3 2 5 6"
				}

			}
, 			{
				"box" : 				{
					"id" : "obj-4",
					"maxclass" : "newobj",
					"numinlets" : 1,
					"numoutlets" : 0,
					"patching_rect" : [ 183.0, 653.0, 54.0, 22.0 ],
					"text" : "mc.dac~"
				}

			}
, 			{
				"box" : 				{
					"bgmode" : 0,
					"border" : 0,
					"clickthrough" : 0,
					"enablehscroll" : 0,
					"enablevscroll" : 0,
					"id" : "obj-23",
					"lockeddragscroll" : 0,
					"lockedsize" : 0,
					"maxclass" : "bpatcher",
					"name" : "SSTT-Sub.maxpat",
					"numinlets" : 1,
					"numoutlets" : 0,
					"offset" : [ 0.0, 0.0 ],
					"patching_rect" : [ 431.0, 250.0, 164.0, 169.0 ],
					"viewvisibility" : 1
				}

			}
, 			{
				"box" : 				{
					"bgmode" : 0,
					"border" : 0,
					"clickthrough" : 0,
					"enablehscroll" : 0,
					"enablevscroll" : 0,
					"id" : "obj-1",
					"lockeddragscroll" : 0,
					"lockedsize" : 0,
					"maxclass" : "bpatcher",
					"name" : "SSTT-encode.maxpat",
					"numinlets" : 1,
					"numoutlets" : 1,
					"offset" : [ 0.0, 0.0 ],
					"outlettype" : [ "multichannelsignal" ],
					"patching_rect" : [ 183.0, 113.0, 287.0, 108.0 ],
					"viewvisibility" : 1
				}

			}
, 			{
				"box" : 				{
					"bgmode" : 0,
					"border" : 0,
					"clickthrough" : 0,
					"enablehscroll" : 0,
					"enablevscroll" : 0,
					"id" : "obj-2",
					"lockeddragscroll" : 0,
					"lockedsize" : 0,
					"maxclass" : "bpatcher",
					"name" : "SSTT-Decoder-Output.maxpat",
					"numinlets" : 1,
					"numoutlets" : 1,
					"offset" : [ 0.0, 0.0 ],
					"outlettype" : [ "multichannelsignal" ],
					"patching_rect" : [ 183.0, 436.0, 989.0, 170.0 ],
					"viewvisibility" : 1
				}

			}
 ],
		"lines" : [ 			{
				"patchline" : 				{
					"destination" : [ "obj-2", 0 ],
					"order" : 1,
					"source" : [ "obj-1", 0 ]
				}

			}
, 			{
				"patchline" : 				{
					"destination" : [ "obj-23", 0 ],
					"order" : 0,
					"source" : [ "obj-1", 0 ]
				}

			}
, 			{
				"patchline" : 				{
					"destination" : [ "obj-4", 0 ],
					"source" : [ "obj-2", 0 ]
				}

			}
, 			{
				"patchline" : 				{
					"destination" : [ "obj-32", 0 ],
					"source" : [ "obj-20", 0 ]
				}

			}
, 			{
				"patchline" : 				{
					"destination" : [ "obj-20", 0 ],
					"source" : [ "obj-25", 0 ]
				}

			}
, 			{
				"patchline" : 				{
					"destination" : [ "obj-21", 0 ],
					"source" : [ "obj-32", 0 ]
				}

			}
, 			{
				"patchline" : 				{
					"destination" : [ "obj-4", 0 ],
					"source" : [ "obj-6", 0 ]
				}

			}
, 			{
				"patchline" : 				{
					"destination" : [ "obj-1", 0 ],
					"source" : [ "obj-8", 1 ]
				}

			}
, 			{
				"patchline" : 				{
					"destination" : [ "obj-1", 0 ],
					"source" : [ "obj-8", 0 ]
				}

			}
 ],
		"parameters" : 		{
			"obj-1::obj-20" : [ "ShowCh[13]", "showCh", 0 ],
			"obj-1::obj-3" : [ "ambiorder", "ambiorder", 0 ],
			"obj-1::obj-57" : [ "live.text[15]", "live.text[9]", 0 ],
			"obj-1::obj-79" : [ "ShowCh[14]", "showCh", 0 ],
			"obj-23::obj-4" : [ "Sub_ch_vol", "Sub_ch_vol", 0 ],
			"obj-23::obj-8" : [ "Sub_ch_sel", "Sub_ch_sel", 0 ],
			"obj-23::obj-9" : [ "Sub_ch_freq", "freq", 0 ],
			"obj-2::obj-10" : [ "Crossover", "Crossover", 0 ],
			"obj-2::obj-103::obj-21" : [ "speakersetup", "live.menu", 0 ],
			"obj-2::obj-12" : [ "live.menu[8]", "live.menu[2]", 0 ],
			"obj-2::obj-14" : [ "mc.live.gain~[2]", "loudspeakers", 0 ],
			"obj-2::obj-22::obj-102" : [ "live.toggle[436]", "live.toggle", 0 ],
			"obj-2::obj-22::obj-3" : [ "live.text[1]", "live.text[9]", 0 ],
			"obj-2::obj-22::obj-57" : [ "live.text[9]", "live.text[9]", 0 ],
			"obj-2::obj-22::obj-58" : [ "live.text[10]", "live.text[9]", 0 ],
			"obj-2::obj-22::obj-62" : [ "live.text[12]", "live.text[9]", 0 ],
			"obj-2::obj-22::obj-72" : [ "live.text[14]", "live.text[8]", 0 ],
			"obj-2::obj-25" : [ "live.tab[2]", "live.tab[2]", 0 ],
			"obj-2::obj-27" : [ "live.menu[9]", "live.menu", 0 ],
			"obj-2::obj-31" : [ "Headphones_vol", "headphones", 0 ],
			"obj-2::obj-38" : [ "live.numbox[6]", "live.numbox", 0 ],
			"obj-2::obj-4" : [ "ShowCh[1]", "showCh", 0 ],
			"obj-2::obj-45" : [ "live.menu[10]", "live.menu", 0 ],
			"obj-2::obj-58" : [ "live.text[13]", "live.text[9]", 0 ],
			"obj-2::obj-7" : [ "live.menu[5]", "live.menu[1]", 0 ],
			"obj-2::obj-79" : [ "ShowCh[2]", "showCh", 0 ],
			"parameter_overrides" : 			{
				"obj-2::obj-103::obj-21" : 				{
					"parameter_linknames" : 1,
					"parameter_longname" : "speakersetup",
					"parameter_osc_enabled" : 1,
					"parameter_osc_name" : "speakersetup"
				}

			}
,
			"inherited_shortname" : 1
		}
,
		"dependency_cache" : [ 			{
				"name" : "SSTT-Decoder-Output.maxpat",
				"bootpath" : "~/Documents/Spatial-Transformation-toolkit",
				"patcherrelativepath" : ".",
				"type" : "JSON",
				"implicit" : 1
			}
, 			{
				"name" : "SSTT-Sub.maxpat",
				"bootpath" : "~/Documents/Spatial-Transformation-toolkit",
				"patcherrelativepath" : ".",
				"type" : "JSON",
				"implicit" : 1
			}
, 			{
				"name" : "SSTT-encode.maxpat",
				"bootpath" : "~/Documents/Spatial-Transformation-toolkit",
				"patcherrelativepath" : ".",
				"type" : "JSON",
				"implicit" : 1
			}
, 			{
				"name" : "bsclarinetsAirsnd3.aif",
				"bootpath" : "~/Documents/Spatial-Transformation-toolkit/media",
				"patcherrelativepath" : "./media",
				"type" : "AIFF",
				"implicit" : 1
			}
, 			{
				"name" : "spat5.gui.control.maxpat",
				"bootpath" : "~/Documents/Max 9/Packages/spat5/patchers",
				"patcherrelativepath" : "../Max 9/Packages/spat5/patchers",
				"type" : "JSON",
				"implicit" : 1
			}
, 			{
				"name" : "spat5.headphoneeq~.mxo",
				"type" : "iLaX"
			}
, 			{
				"name" : "spat5.hoa.binaural~.mxo",
				"type" : "iLaX"
			}
, 			{
				"name" : "spat5.hoa.decoder~.mxo",
				"type" : "iLaX"
			}
, 			{
				"name" : "spat5.hoa.encoder~.mxo",
				"type" : "iLaX"
			}
, 			{
				"name" : "spat5.known.speakersetups.maxpat",
				"bootpath" : "~/Documents/Max 9/Packages/spat5/patchers",
				"patcherrelativepath" : "../Max 9/Packages/spat5/patchers",
				"type" : "JSON",
				"implicit" : 1
			}
, 			{
				"name" : "spat5.osc.prepend.mxo",
				"type" : "iLaX"
			}
, 			{
				"name" : "spat5.osc.route.mxo",
				"type" : "iLaX"
			}
, 			{
				"name" : "spat5.speaker.config.mxo",
				"type" : "iLaX"
			}
, 			{
				"name" : "spat5.speaker.layout.mxo",
				"type" : "iLaX"
			}
, 			{
				"name" : "spat5.viewer.mxo",
				"type" : "iLaX"
			}
, 			{
				"name" : "spat_decode_manager.js",
				"bootpath" : "~/Documents/Spatial-Transformation-toolkit/javascript",
				"patcherrelativepath" : "./javascript",
				"type" : "TEXT",
				"implicit" : 1
			}
, 			{
				"name" : "sptt-hoa-encodeMain.js",
				"bootpath" : "~/Documents/Spatial-Transformation-toolkit/javascript",
				"patcherrelativepath" : "./javascript",
				"type" : "TEXT",
				"implicit" : 1
			}
, 			{
				"name" : "thru.maxpat",
				"bootpath" : "C74:/patchers/m4l/Pluggo for Live resources/patches",
				"type" : "JSON",
				"implicit" : 1
			}
 ],
		"autosave" : 0
	}

}
