{
	"patcher" : 	{
		"fileversion" : 1,
		"appversion" : 		{
			"major" : 9,
			"minor" : 0,
			"revision" : 9,
			"architecture" : "x64",
			"modernui" : 1
		}
,
		"classnamespace" : "box",
		"rect" : [ 94.0, 150.0, 1089.0, 700.0 ],
		"openinpresentation" : 1,
		"gridsize" : [ 15.0, 15.0 ],
		"boxes" : [ 			{
				"box" : 				{
					"id" : "obj-28",
					"maxclass" : "newobj",
					"numinlets" : 1,
					"numoutlets" : 1,
					"outlettype" : [ "" ],
					"patching_rect" : [ 192.0, 526.0, 51.0, 22.0 ],
					"text" : "pcontrol"
				}

			}
, 			{
				"box" : 				{
					"id" : "obj-30",
					"maxclass" : "newobj",
					"numinlets" : 1,
					"numoutlets" : 0,
					"patching_rect" : [ 192.0, 562.0, 56.0, 22.0 ],
					"text" : "onecopy"
				}

			}
, 			{
				"box" : 				{
					"fontface" : 0,
					"fontname" : "Arial",
					"fontsize" : 12.0,
					"id" : "obj-1",
					"maxclass" : "comment",
					"numinlets" : 1,
					"numoutlets" : 0,
					"patching_rect" : [ 360.0, 361.0, 462.0, 20.0 ],
					"presentation" : 1,
					"presentation_rect" : [ 337.0, 318.0, 462.0, 20.0 ],
					"text" : "- Even more Re-Encoding - mc synth  in multichannel fomat to ambisonic"
				}

			}
, 			{
				"box" : 				{
					"fontface" : 0,
					"fontname" : "Arial",
					"fontsize" : 12.0,
					"id" : "obj-35",
					"maxclass" : "comment",
					"numinlets" : 1,
					"numoutlets" : 0,
					"patching_rect" : [ 357.0, 423.0, 378.0, 20.0 ],
					"presentation" : 1,
					"presentation_rect" : [ 337.0, 393.0, 378.0, 20.0 ],
					"text" : "- Spectral Interpolation 2"
				}

			}
, 			{
				"box" : 				{
					"fontface" : 0,
					"fontname" : "Arial",
					"fontsize" : 12.0,
					"id" : "obj-23",
					"maxclass" : "comment",
					"numinlets" : 1,
					"numoutlets" : 0,
					"patching_rect" : [ 357.0, 401.0, 378.0, 20.0 ],
					"presentation" : 1,
					"presentation_rect" : [ 337.0, 368.0, 378.0, 20.0 ],
					"text" : "- Spectral Interpolation 1"
				}

			}
, 			{
				"box" : 				{
					"fontface" : 0,
					"fontname" : "Arial",
					"fontsize" : 12.0,
					"id" : "obj-22",
					"maxclass" : "comment",
					"numinlets" : 1,
					"numoutlets" : 0,
					"patching_rect" : [ 357.0, 375.0, 379.0, 20.0 ],
					"presentation" : 1,
					"presentation_rect" : [ 337.0, 343.0, 379.0, 20.0 ],
					"text" : "- Spatial granulation - Spat-granular + t-design encoding"
				}

			}
, 			{
				"box" : 				{
					"fontface" : 0,
					"fontname" : "Arial",
					"fontsize" : 12.0,
					"id" : "obj-21",
					"maxclass" : "comment",
					"numinlets" : 1,
					"numoutlets" : 0,
					"patching_rect" : [ 357.0, 343.0, 462.0, 20.0 ],
					"presentation" : 1,
					"presentation_rect" : [ 337.0, 294.0, 462.0, 20.0 ],
					"text" : "- Even more Re-Encoding - spectral filter in multichannel fomat to ambisonic"
				}

			}
, 			{
				"box" : 				{
					"fontface" : 0,
					"fontname" : "Arial",
					"fontsize" : 12.0,
					"id" : "obj-20",
					"maxclass" : "comment",
					"numinlets" : 1,
					"numoutlets" : 0,
					"patching_rect" : [ 357.0, 321.0, 447.0, 20.0 ],
					"presentation" : 1,
					"presentation_rect" : [ 337.0, 270.0, 447.0, 20.0 ],
					"text" : "- nonlinear processing? no problemo -ReEncoding to the rescue pt.b"
				}

			}
, 			{
				"box" : 				{
					"fontface" : 0,
					"fontname" : "Arial",
					"fontsize" : 12.0,
					"id" : "obj-19",
					"maxclass" : "comment",
					"numinlets" : 1,
					"numoutlets" : 0,
					"patching_rect" : [ 357.0, 293.0, 437.0, 20.0 ],
					"presentation" : 1,
					"presentation_rect" : [ 337.0, 246.0, 437.0, 20.0 ],
					"text" : "- nonlinear processing? no problemo -ReEncoding to the rescue pt.a"
				}

			}
, 			{
				"box" : 				{
					"fontface" : 0,
					"fontname" : "Arial",
					"fontsize" : 12.0,
					"id" : "obj-18",
					"maxclass" : "comment",
					"numinlets" : 1,
					"numoutlets" : 0,
					"patching_rect" : [ 357.377038955688477, 267.0, 467.0, 20.0 ],
					"presentation" : 1,
					"presentation_rect" : [ 337.0, 223.0, 467.0, 20.0 ],
					"text" : "- Waveshaping and blurring Ambisonic? Or how to destroy your phase and gain."
				}

			}
, 			{
				"box" : 				{
					"fontface" : 0,
					"fontname" : "Arial",
					"fontsize" : 12.0,
					"id" : "obj-17",
					"maxclass" : "comment",
					"numinlets" : 1,
					"numoutlets" : 0,
					"patching_rect" : [ 357.0, 228.0, 379.0, 20.0 ],
					"presentation" : 1,
					"presentation_rect" : [ 337.0, 197.0, 379.0, 20.0 ],
					"text" : "- A directionalless reverb - Reverberating the W channel"
				}

			}
, 			{
				"box" : 				{
					"fontface" : 0,
					"fontname" : "Arial",
					"fontsize" : 12.0,
					"id" : "obj-16",
					"maxclass" : "comment",
					"numinlets" : 1,
					"numoutlets" : 0,
					"patching_rect" : [ 357.0, 204.0, 438.0, 20.0 ],
					"presentation" : 1,
					"presentation_rect" : [ 337.0, 173.0, 438.0, 20.0 ],
					"text" : "- How to deal with Sub bass: Routing the Sub from W (omni component )"
				}

			}
, 			{
				"box" : 				{
					"fontface" : 0,
					"fontname" : "Arial",
					"fontsize" : 12.0,
					"id" : "obj-15",
					"maxclass" : "comment",
					"numinlets" : 1,
					"numoutlets" : 0,
					"patching_rect" : [ 355.0, 179.0, 448.0, 20.0 ],
					"presentation" : 1,
					"presentation_rect" : [ 337.0, 148.0, 448.0, 20.0 ],
					"text" : "- \"Exploding\" a sound into a space -spectrumsplitting and beamforming"
				}

			}
, 			{
				"box" : 				{
					"fontface" : 0,
					"fontname" : "Arial",
					"fontsize" : 12.0,
					"id" : "obj-14",
					"maxclass" : "comment",
					"numinlets" : 1,
					"numoutlets" : 0,
					"patching_rect" : [ 357.0, 155.0, 379.0, 20.0 ],
					"presentation" : 1,
					"presentation_rect" : [ 337.0, 123.0, 379.0, 20.0 ],
					"text" : "- Decorrelation the ambisonic signal -creating a diffuse soundfield"
				}

			}
, 			{
				"box" : 				{
					"fontface" : 0,
					"fontname" : "Arial",
					"fontsize" : 12.0,
					"id" : "obj-13",
					"maxclass" : "comment",
					"numinlets" : 1,
					"numoutlets" : 0,
					"patching_rect" : [ 357.0, 130.0, 379.0, 20.0 ],
					"presentation" : 1,
					"presentation_rect" : [ 337.0, 98.0, 379.0, 20.0 ],
					"text" : "- Spatial Ringmodulation, Ringmodulating  the ambisonic signal."
				}

			}
, 			{
				"box" : 				{
					"fontface" : 0,
					"fontname" : "Arial",
					"fontsize" : 12.0,
					"id" : "obj-12",
					"maxclass" : "comment",
					"numinlets" : 1,
					"numoutlets" : 0,
					"patching_rect" : [ 357.0, 104.0, 725.0, 20.0 ],
					"presentation" : 1,
					"presentation_rect" : [ 337.0, 73.0, 709.0, 20.0 ],
					"text" : "- Going further, splitting the Ambisonic signal into Horisontal and Vertical Spatial components, delaying only parts of the components"
				}

			}
, 			{
				"box" : 				{
					"fontface" : 0,
					"fontname" : "Arial",
					"fontsize" : 12.0,
					"id" : "obj-11",
					"maxclass" : "comment",
					"numinlets" : 1,
					"numoutlets" : 0,
					"patching_rect" : [ 357.377038955688477, 82.0, 378.0, 20.0 ],
					"presentation" : 1,
					"presentation_rect" : [ 337.0, 49.0, 378.0, 20.0 ],
					"text" : "- Delaying the spherical components, Rotation and Warping"
				}

			}
, 			{
				"box" : 				{
					"fontface" : 0,
					"fontname" : "Arial",
					"fontsize" : 12.0,
					"id" : "obj-10",
					"maxclass" : "comment",
					"numinlets" : 1,
					"numoutlets" : 0,
					"patching_rect" : [ 357.377038955688477, 55.0, 312.0, 20.0 ],
					"presentation" : 1,
					"presentation_rect" : [ 337.0, 23.0, 312.0, 20.0 ],
					"text" : "- A brief introduction and starting template, start here"
				}

			}
, 			{
				"box" : 				{
					"id" : "obj-29",
					"maxclass" : "newobj",
					"numinlets" : 1,
					"numoutlets" : 1,
					"outlettype" : [ "" ],
					"patching_rect" : [ 192.0, 494.0, 121.0, 22.0 ],
					"text" : "sprintf load SSTT-%s"
				}

			}
, 			{
				"box" : 				{
					"activebgcolor" : [ 0.736950910211998, 0.736950732249687, 0.736950778673858, 1.0 ],
					"activebgoncolor" : [ 0.647059, 0.647059, 0.647059, 1.0 ],
					"bgcolor" : [ 0.736950910211998, 0.736950732249687, 0.736950778673858, 1.0 ],
					"bgoncolor" : [ 0.647058823529412, 0.647058823529412, 0.647058823529412, 1.0 ],
					"bordercolor" : [ 0.144131996740917, 0.144131949846078, 0.144131962041943, 1.0 ],
					"focusbordercolor" : [ 0.313725490196078, 0.313725490196078, 0.313725490196078, 0.0 ],
					"fontname" : "Lato",
					"fontsize" : 12.0,
					"id" : "obj-7",
					"inactivetextoffcolor" : [ 0.0, 0.0, 0.0, 1.0 ],
					"inactivetextoncolor" : [ 0.0, 0.0, 0.0, 1.0 ],
					"maxclass" : "live.tab",
					"num_lines_patching" : 16,
					"num_lines_presentation" : 16,
					"numinlets" : 1,
					"numoutlets" : 3,
					"outlettype" : [ "", "", "float" ],
					"parameter_enable" : 1,
					"patching_rect" : [ 48.0, 52.0, 307.0, 392.0 ],
					"presentation" : 1,
					"presentation_rect" : [ 28.0, 22.0, 307.0, 392.0 ],
					"rounded" : 4.0,
					"saved_attribute_attributes" : 					{
						"activebgcolor" : 						{
							"expression" : ""
						}
,
						"activebgoncolor" : 						{
							"expression" : ""
						}
,
						"bgcolor" : 						{
							"expression" : ""
						}
,
						"bgoncolor" : 						{
							"expression" : ""
						}
,
						"bordercolor" : 						{
							"expression" : ""
						}
,
						"focusbordercolor" : 						{
							"expression" : ""
						}
,
						"inactivetextoffcolor" : 						{
							"expression" : ""
						}
,
						"inactivetextoncolor" : 						{
							"expression" : ""
						}
,
						"textcolor" : 						{
							"expression" : ""
						}
,
						"textoncolor" : 						{
							"expression" : ""
						}
,
						"valueof" : 						{
							"parameter_enum" : [ "Example-1", "Example-2", "Example-3", "Example-4", "Example-5", "Example-6", "Example-7", "Example-8", "Example-9", "Example-10a", "Example-10b", "Example-11", "Example-11b", "Example-12", "Example-13", "Example-14" ],
							"parameter_longname" : "live.tab[48]",
							"parameter_mmax" : 15,
							"parameter_modmode" : 0,
							"parameter_shortname" : "live.tab[14]",
							"parameter_type" : 2,
							"parameter_unitstyle" : 9
						}

					}
,
					"textcolor" : [ 0.2, 0.2, 0.2, 1.0 ],
					"textoncolor" : [ 0.124064905296827, 0.124064860727621, 0.124064872278807, 1.0 ],
					"varname" : "live.tab[1]"
				}

			}
 ],
		"lines" : [ 			{
				"patchline" : 				{
					"destination" : [ "obj-30", 0 ],
					"midpoints" : [ 201.5, 560.0, 201.5, 560.0 ],
					"source" : [ "obj-28", 0 ]
				}

			}
, 			{
				"patchline" : 				{
					"destination" : [ "obj-28", 0 ],
					"source" : [ "obj-29", 0 ]
				}

			}
, 			{
				"patchline" : 				{
					"destination" : [ "obj-29", 0 ],
					"source" : [ "obj-7", 1 ]
				}

			}
 ]
	}

}
